<mxfile host="Electron" agent="Mozilla/5.0 (Macintosh; Intel Mac OS X 10_15_7) AppleWebKit/537.36 (KHTML, like Gecko) draw.io/26.0.15 Chrome/132.0.6834.196 Electron/34.2.0 Safari/537.36" version="26.0.15">
  <diagram name="Page-1" id="qIaNybz27-Pb2yAM0zw1">
    <mxGraphModel dx="2228" dy="1590" grid="1" gridSize="10" guides="1" tooltips="1" connect="1" arrows="1" fold="1" page="1" pageScale="1" pageWidth="827" pageHeight="1169" math="0" shadow="0">
      <root>
        <mxCell id="0" />
        <mxCell id="1" parent="0" />
        <mxCell id="J4NICDW2dzj8mF2yairB-1" value="Front Side" style="rounded=0;whiteSpace=wrap;html=1;fillColor=#f5f5f5;fontColor=#333333;strokeColor=#666666;fontStyle=1" parent="1" vertex="1">
          <mxGeometry x="220" y="320" width="190" height="30" as="geometry" />
        </mxCell>
        <mxCell id="J4NICDW2dzj8mF2yairB-2" value="Pin" style="rounded=0;whiteSpace=wrap;html=1;fillColor=#f5f5f5;fontColor=#333333;strokeColor=#666666;fontStyle=1" parent="1" vertex="1">
          <mxGeometry x="220" y="350" width="40" height="30" as="geometry" />
        </mxCell>
        <mxCell id="J4NICDW2dzj8mF2yairB-3" value="Signal" style="rounded=0;whiteSpace=wrap;html=1;fillColor=#f5f5f5;fontColor=#333333;strokeColor=#666666;fontStyle=1" parent="1" vertex="1">
          <mxGeometry x="260" y="350" width="150" height="30" as="geometry" />
        </mxCell>
        <mxCell id="J4NICDW2dzj8mF2yairB-4" value="GND" style="rounded=0;whiteSpace=wrap;html=1;fillColor=#bac8d3;strokeColor=#23445d;" parent="1" vertex="1">
          <mxGeometry x="260" y="380" width="150" height="30" as="geometry" />
        </mxCell>
        <mxCell id="J4NICDW2dzj8mF2yairB-5" value="JTAG_TCK" style="rounded=0;whiteSpace=wrap;html=1;fillColor=#fad7ac;strokeColor=#b46504;" parent="1" vertex="1">
          <mxGeometry x="260" y="410" width="150" height="30" as="geometry" />
        </mxCell>
        <mxCell id="J4NICDW2dzj8mF2yairB-6" value="JTAG_TDI" style="rounded=0;whiteSpace=wrap;html=1;fillColor=#fad7ac;strokeColor=#b46504;" parent="1" vertex="1">
          <mxGeometry x="260" y="440" width="150" height="30" as="geometry" />
        </mxCell>
        <mxCell id="J4NICDW2dzj8mF2yairB-8" value="GND" style="rounded=0;whiteSpace=wrap;html=1;fillColor=#bac8d3;strokeColor=#23445d;" parent="1" vertex="1">
          <mxGeometry x="260" y="470" width="150" height="30" as="geometry" />
        </mxCell>
        <mxCell id="J4NICDW2dzj8mF2yairB-9" value="1" style="rounded=0;whiteSpace=wrap;html=1;fillColor=#f5f5f5;fontColor=#333333;strokeColor=#666666;" parent="1" vertex="1">
          <mxGeometry x="220" y="380" width="40" height="30" as="geometry" />
        </mxCell>
        <mxCell id="J4NICDW2dzj8mF2yairB-10" value="3" style="rounded=0;whiteSpace=wrap;html=1;fillColor=#f5f5f5;fontColor=#333333;strokeColor=#666666;" parent="1" vertex="1">
          <mxGeometry x="220" y="410" width="40" height="30" as="geometry" />
        </mxCell>
        <mxCell id="J4NICDW2dzj8mF2yairB-12" value="5" style="rounded=0;whiteSpace=wrap;html=1;fillColor=#f5f5f5;fontColor=#333333;strokeColor=#666666;" parent="1" vertex="1">
          <mxGeometry x="220" y="440" width="40" height="30" as="geometry" />
        </mxCell>
        <mxCell id="J4NICDW2dzj8mF2yairB-13" value="JTAG_TDO" style="rounded=0;whiteSpace=wrap;html=1;fillColor=#fad7ac;strokeColor=#b46504;" parent="1" vertex="1">
          <mxGeometry x="260" y="500" width="150" height="30" as="geometry" />
        </mxCell>
        <mxCell id="J4NICDW2dzj8mF2yairB-14" value="JTAG_TMS" style="rounded=0;whiteSpace=wrap;html=1;fillColor=#fad7ac;strokeColor=#b46504;" parent="1" vertex="1">
          <mxGeometry x="260" y="530" width="150" height="30" as="geometry" />
        </mxCell>
        <mxCell id="J4NICDW2dzj8mF2yairB-15" value="GND" style="rounded=0;whiteSpace=wrap;html=1;fillColor=#bac8d3;strokeColor=#23445d;" parent="1" vertex="1">
          <mxGeometry x="260" y="560" width="150" height="30" as="geometry" />
        </mxCell>
        <mxCell id="J4NICDW2dzj8mF2yairB-16" value="7" style="rounded=0;whiteSpace=wrap;html=1;fillColor=#f5f5f5;fontColor=#333333;strokeColor=#666666;" parent="1" vertex="1">
          <mxGeometry x="220" y="470" width="40" height="30" as="geometry" />
        </mxCell>
        <mxCell id="J4NICDW2dzj8mF2yairB-17" value="9" style="rounded=0;whiteSpace=wrap;html=1;fillColor=#f5f5f5;fontColor=#333333;strokeColor=#666666;" parent="1" vertex="1">
          <mxGeometry x="220" y="500" width="40" height="30" as="geometry" />
        </mxCell>
        <mxCell id="J4NICDW2dzj8mF2yairB-18" value="11" style="rounded=0;whiteSpace=wrap;html=1;fillColor=#f5f5f5;fontColor=#333333;strokeColor=#666666;" parent="1" vertex="1">
          <mxGeometry x="220" y="530" width="40" height="30" as="geometry" />
        </mxCell>
        <mxCell id="J4NICDW2dzj8mF2yairB-19" value="RTD0P" style="rounded=0;whiteSpace=wrap;html=1;fillColor=#b0e3e6;strokeColor=#0e8088;" parent="1" vertex="1">
          <mxGeometry x="260" y="590" width="150" height="30" as="geometry" />
        </mxCell>
        <mxCell id="J4NICDW2dzj8mF2yairB-20" value="RTD0N" style="rounded=0;whiteSpace=wrap;html=1;fillColor=#b0e3e6;strokeColor=#0e8088;" parent="1" vertex="1">
          <mxGeometry x="260" y="620" width="150" height="30" as="geometry" />
        </mxCell>
        <mxCell id="J4NICDW2dzj8mF2yairB-21" value="13" style="rounded=0;whiteSpace=wrap;html=1;fillColor=#f5f5f5;fontColor=#333333;strokeColor=#666666;" parent="1" vertex="1">
          <mxGeometry x="220" y="560" width="40" height="30" as="geometry" />
        </mxCell>
        <mxCell id="J4NICDW2dzj8mF2yairB-22" value="15" style="rounded=0;whiteSpace=wrap;html=1;fillColor=#f5f5f5;fontColor=#333333;strokeColor=#666666;" parent="1" vertex="1">
          <mxGeometry x="220" y="590" width="40" height="30" as="geometry" />
        </mxCell>
        <mxCell id="J4NICDW2dzj8mF2yairB-23" value="GND" style="rounded=0;whiteSpace=wrap;html=1;fillColor=#bac8d3;strokeColor=#23445d;" parent="1" vertex="1">
          <mxGeometry x="260" y="650" width="150" height="30" as="geometry" />
        </mxCell>
        <mxCell id="J4NICDW2dzj8mF2yairB-24" value="17" style="rounded=0;whiteSpace=wrap;html=1;fillColor=#f5f5f5;fontColor=#333333;strokeColor=#666666;" parent="1" vertex="1">
          <mxGeometry x="220" y="620" width="40" height="30" as="geometry" />
        </mxCell>
        <mxCell id="J4NICDW2dzj8mF2yairB-25" value="RTD1P" style="rounded=0;whiteSpace=wrap;html=1;fillColor=#b0e3e6;strokeColor=#0e8088;" parent="1" vertex="1">
          <mxGeometry x="260" y="680" width="150" height="30" as="geometry" />
        </mxCell>
        <mxCell id="J4NICDW2dzj8mF2yairB-26" value="RTD1N" style="rounded=0;whiteSpace=wrap;html=1;fillColor=#b0e3e6;strokeColor=#0e8088;" parent="1" vertex="1">
          <mxGeometry x="260" y="710" width="150" height="30" as="geometry" />
        </mxCell>
        <mxCell id="J4NICDW2dzj8mF2yairB-27" value="19" style="rounded=0;whiteSpace=wrap;html=1;fillColor=#f5f5f5;fontColor=#333333;strokeColor=#666666;" parent="1" vertex="1">
          <mxGeometry x="220" y="650" width="40" height="30" as="geometry" />
        </mxCell>
        <mxCell id="J4NICDW2dzj8mF2yairB-28" value="21" style="rounded=0;whiteSpace=wrap;html=1;fillColor=#f5f5f5;fontColor=#333333;strokeColor=#666666;" parent="1" vertex="1">
          <mxGeometry x="220" y="680" width="40" height="30" as="geometry" />
        </mxCell>
        <mxCell id="J4NICDW2dzj8mF2yairB-29" value="GND" style="rounded=0;whiteSpace=wrap;html=1;fillColor=#bac8d3;strokeColor=#23445d;" parent="1" vertex="1">
          <mxGeometry x="260" y="740" width="150" height="30" as="geometry" />
        </mxCell>
        <mxCell id="J4NICDW2dzj8mF2yairB-30" value="23" style="rounded=0;whiteSpace=wrap;html=1;fillColor=#f5f5f5;fontColor=#333333;strokeColor=#666666;" parent="1" vertex="1">
          <mxGeometry x="220" y="710" width="40" height="30" as="geometry" />
        </mxCell>
        <mxCell id="J4NICDW2dzj8mF2yairB-31" value="RTD2P" style="rounded=0;whiteSpace=wrap;html=1;fillColor=#b0e3e6;strokeColor=#0e8088;" parent="1" vertex="1">
          <mxGeometry x="260" y="770" width="150" height="30" as="geometry" />
        </mxCell>
        <mxCell id="J4NICDW2dzj8mF2yairB-32" value="RTD2N" style="rounded=0;whiteSpace=wrap;html=1;fillColor=#b0e3e6;strokeColor=#0e8088;" parent="1" vertex="1">
          <mxGeometry x="260" y="800" width="150" height="30" as="geometry" />
        </mxCell>
        <mxCell id="J4NICDW2dzj8mF2yairB-33" value="25" style="rounded=0;whiteSpace=wrap;html=1;fillColor=#f5f5f5;fontColor=#333333;strokeColor=#666666;" parent="1" vertex="1">
          <mxGeometry x="220" y="740" width="40" height="30" as="geometry" />
        </mxCell>
        <mxCell id="J4NICDW2dzj8mF2yairB-34" value="27" style="rounded=0;whiteSpace=wrap;html=1;fillColor=#f5f5f5;fontColor=#333333;strokeColor=#666666;" parent="1" vertex="1">
          <mxGeometry x="220" y="770" width="40" height="30" as="geometry" />
        </mxCell>
        <mxCell id="J4NICDW2dzj8mF2yairB-35" value="GND" style="rounded=0;whiteSpace=wrap;html=1;fillColor=#bac8d3;strokeColor=#23445d;" parent="1" vertex="1">
          <mxGeometry x="260" y="830" width="150" height="30" as="geometry" />
        </mxCell>
        <mxCell id="J4NICDW2dzj8mF2yairB-36" value="29" style="rounded=0;whiteSpace=wrap;html=1;fillColor=#f5f5f5;fontColor=#333333;strokeColor=#666666;" parent="1" vertex="1">
          <mxGeometry x="220" y="800" width="40" height="30" as="geometry" />
        </mxCell>
        <mxCell id="J4NICDW2dzj8mF2yairB-37" value="RTD3P" style="rounded=0;whiteSpace=wrap;html=1;fillColor=#b0e3e6;strokeColor=#0e8088;" parent="1" vertex="1">
          <mxGeometry x="260" y="860" width="150" height="30" as="geometry" />
        </mxCell>
        <mxCell id="J4NICDW2dzj8mF2yairB-38" value="RTD3N" style="rounded=0;whiteSpace=wrap;html=1;fillColor=#b0e3e6;strokeColor=#0e8088;" parent="1" vertex="1">
          <mxGeometry x="260" y="890" width="150" height="30" as="geometry" />
        </mxCell>
        <mxCell id="J4NICDW2dzj8mF2yairB-39" value="31" style="rounded=0;whiteSpace=wrap;html=1;fillColor=#f5f5f5;fontColor=#333333;strokeColor=#666666;" parent="1" vertex="1">
          <mxGeometry x="220" y="830" width="40" height="30" as="geometry" />
        </mxCell>
        <mxCell id="J4NICDW2dzj8mF2yairB-40" value="33" style="rounded=0;whiteSpace=wrap;html=1;fillColor=#f5f5f5;fontColor=#333333;strokeColor=#666666;" parent="1" vertex="1">
          <mxGeometry x="220" y="860" width="40" height="30" as="geometry" />
        </mxCell>
        <mxCell id="J4NICDW2dzj8mF2yairB-41" value="GND" style="rounded=0;whiteSpace=wrap;html=1;fillColor=#bac8d3;strokeColor=#23445d;" parent="1" vertex="1">
          <mxGeometry x="260" y="920" width="150" height="30" as="geometry" />
        </mxCell>
        <mxCell id="J4NICDW2dzj8mF2yairB-42" value="35" style="rounded=0;whiteSpace=wrap;html=1;fillColor=#f5f5f5;fontColor=#333333;strokeColor=#666666;" parent="1" vertex="1">
          <mxGeometry x="220" y="890" width="40" height="30" as="geometry" />
        </mxCell>
        <mxCell id="J4NICDW2dzj8mF2yairB-43" value="RTD4P" style="rounded=0;whiteSpace=wrap;html=1;fillColor=#b0e3e6;strokeColor=#0e8088;" parent="1" vertex="1">
          <mxGeometry x="260" y="950" width="150" height="30" as="geometry" />
        </mxCell>
        <mxCell id="J4NICDW2dzj8mF2yairB-44" value="RTD4N" style="rounded=0;whiteSpace=wrap;html=1;fillColor=#b0e3e6;strokeColor=#0e8088;" parent="1" vertex="1">
          <mxGeometry x="260" y="980" width="150" height="30" as="geometry" />
        </mxCell>
        <mxCell id="J4NICDW2dzj8mF2yairB-45" value="37" style="rounded=0;whiteSpace=wrap;html=1;fillColor=#f5f5f5;fontColor=#333333;strokeColor=#666666;" parent="1" vertex="1">
          <mxGeometry x="220" y="920" width="40" height="30" as="geometry" />
        </mxCell>
        <mxCell id="J4NICDW2dzj8mF2yairB-46" value="39" style="rounded=0;whiteSpace=wrap;html=1;fillColor=#f5f5f5;fontColor=#333333;strokeColor=#666666;" parent="1" vertex="1">
          <mxGeometry x="220" y="950" width="40" height="30" as="geometry" />
        </mxCell>
        <mxCell id="J4NICDW2dzj8mF2yairB-47" value="GND" style="rounded=0;whiteSpace=wrap;html=1;fillColor=#bac8d3;strokeColor=#23445d;" parent="1" vertex="1">
          <mxGeometry x="260" y="1010" width="150" height="30" as="geometry" />
        </mxCell>
        <mxCell id="J4NICDW2dzj8mF2yairB-48" value="41" style="rounded=0;whiteSpace=wrap;html=1;fillColor=#f5f5f5;fontColor=#333333;strokeColor=#666666;" parent="1" vertex="1">
          <mxGeometry x="220" y="980" width="40" height="30" as="geometry" />
        </mxCell>
        <mxCell id="J4NICDW2dzj8mF2yairB-49" value="RTD5P" style="rounded=0;whiteSpace=wrap;html=1;fillColor=#b0e3e6;strokeColor=#0e8088;" parent="1" vertex="1">
          <mxGeometry x="260" y="1040" width="150" height="30" as="geometry" />
        </mxCell>
        <mxCell id="J4NICDW2dzj8mF2yairB-50" value="RTD5N" style="rounded=0;whiteSpace=wrap;html=1;fillColor=#b0e3e6;strokeColor=#0e8088;" parent="1" vertex="1">
          <mxGeometry x="260" y="1070" width="150" height="30" as="geometry" />
        </mxCell>
        <mxCell id="J4NICDW2dzj8mF2yairB-51" value="43" style="rounded=0;whiteSpace=wrap;html=1;fillColor=#f5f5f5;fontColor=#333333;strokeColor=#666666;" parent="1" vertex="1">
          <mxGeometry x="220" y="1010" width="40" height="30" as="geometry" />
        </mxCell>
        <mxCell id="J4NICDW2dzj8mF2yairB-52" value="45" style="rounded=0;whiteSpace=wrap;html=1;fillColor=#f5f5f5;fontColor=#333333;strokeColor=#666666;" parent="1" vertex="1">
          <mxGeometry x="220" y="1040" width="40" height="30" as="geometry" />
        </mxCell>
        <mxCell id="J4NICDW2dzj8mF2yairB-53" value="GND" style="rounded=0;whiteSpace=wrap;html=1;fillColor=#bac8d3;strokeColor=#23445d;" parent="1" vertex="1">
          <mxGeometry x="260" y="1100" width="150" height="30" as="geometry" />
        </mxCell>
        <mxCell id="J4NICDW2dzj8mF2yairB-54" value="47" style="rounded=0;whiteSpace=wrap;html=1;fillColor=#f5f5f5;fontColor=#333333;strokeColor=#666666;" parent="1" vertex="1">
          <mxGeometry x="220" y="1070" width="40" height="30" as="geometry" />
        </mxCell>
        <mxCell id="J4NICDW2dzj8mF2yairB-55" value="RTD6P" style="rounded=0;whiteSpace=wrap;html=1;fillColor=#b0e3e6;strokeColor=#0e8088;" parent="1" vertex="1">
          <mxGeometry x="260" y="1130" width="150" height="30" as="geometry" />
        </mxCell>
        <mxCell id="J4NICDW2dzj8mF2yairB-56" value="RTD6N" style="rounded=0;whiteSpace=wrap;html=1;fillColor=#b0e3e6;strokeColor=#0e8088;" parent="1" vertex="1">
          <mxGeometry x="260" y="1160" width="150" height="30" as="geometry" />
        </mxCell>
        <mxCell id="J4NICDW2dzj8mF2yairB-57" value="49" style="rounded=0;whiteSpace=wrap;html=1;fillColor=#f5f5f5;fontColor=#333333;strokeColor=#666666;" parent="1" vertex="1">
          <mxGeometry x="220" y="1100" width="40" height="30" as="geometry" />
        </mxCell>
        <mxCell id="J4NICDW2dzj8mF2yairB-58" value="51" style="rounded=0;whiteSpace=wrap;html=1;fillColor=#f5f5f5;fontColor=#333333;strokeColor=#666666;" parent="1" vertex="1">
          <mxGeometry x="220" y="1130" width="40" height="30" as="geometry" />
        </mxCell>
        <mxCell id="J4NICDW2dzj8mF2yairB-59" value="GND" style="rounded=0;whiteSpace=wrap;html=1;fillColor=#bac8d3;strokeColor=#23445d;" parent="1" vertex="1">
          <mxGeometry x="260" y="1190" width="150" height="30" as="geometry" />
        </mxCell>
        <mxCell id="J4NICDW2dzj8mF2yairB-60" value="53" style="rounded=0;whiteSpace=wrap;html=1;fillColor=#f5f5f5;fontColor=#333333;strokeColor=#666666;" parent="1" vertex="1">
          <mxGeometry x="220" y="1160" width="40" height="30" as="geometry" />
        </mxCell>
        <mxCell id="J4NICDW2dzj8mF2yairB-61" value="RTD7P" style="rounded=0;whiteSpace=wrap;html=1;fillColor=#b0e3e6;strokeColor=#0e8088;" parent="1" vertex="1">
          <mxGeometry x="260" y="1220" width="150" height="30" as="geometry" />
        </mxCell>
        <mxCell id="J4NICDW2dzj8mF2yairB-62" value="RTD7N" style="rounded=0;whiteSpace=wrap;html=1;fillColor=#b0e3e6;strokeColor=#0e8088;" parent="1" vertex="1">
          <mxGeometry x="260" y="1250" width="150" height="30" as="geometry" />
        </mxCell>
        <mxCell id="J4NICDW2dzj8mF2yairB-63" value="55" style="rounded=0;whiteSpace=wrap;html=1;fillColor=#f5f5f5;fontColor=#333333;strokeColor=#666666;" parent="1" vertex="1">
          <mxGeometry x="220" y="1190" width="40" height="30" as="geometry" />
        </mxCell>
        <mxCell id="J4NICDW2dzj8mF2yairB-64" value="57" style="rounded=0;whiteSpace=wrap;html=1;fillColor=#f5f5f5;fontColor=#333333;strokeColor=#666666;" parent="1" vertex="1">
          <mxGeometry x="220" y="1220" width="40" height="30" as="geometry" />
        </mxCell>
        <mxCell id="J4NICDW2dzj8mF2yairB-65" value="GND" style="rounded=0;whiteSpace=wrap;html=1;fillColor=#bac8d3;strokeColor=#23445d;" parent="1" vertex="1">
          <mxGeometry x="260" y="1280" width="150" height="30" as="geometry" />
        </mxCell>
        <mxCell id="J4NICDW2dzj8mF2yairB-66" value="59" style="rounded=0;whiteSpace=wrap;html=1;fillColor=#f5f5f5;fontColor=#333333;strokeColor=#666666;" parent="1" vertex="1">
          <mxGeometry x="220" y="1250" width="40" height="30" as="geometry" />
        </mxCell>
        <mxCell id="J4NICDW2dzj8mF2yairB-67" value="61" style="rounded=0;whiteSpace=wrap;html=1;fillColor=#f5f5f5;fontColor=#333333;strokeColor=#666666;" parent="1" vertex="1">
          <mxGeometry x="220" y="1280" width="40" height="30" as="geometry" />
        </mxCell>
        <mxCell id="J4NICDW2dzj8mF2yairB-70" value="&lt;i&gt;unused&lt;/i&gt;" style="rounded=0;whiteSpace=wrap;html=1;fillColor=#D4D4D4;strokeColor=#666666;fontColor=#333333;" parent="1" vertex="1">
          <mxGeometry x="260" y="1340" width="150" height="30" as="geometry" />
        </mxCell>
        <mxCell id="J4NICDW2dzj8mF2yairB-72" value="63" style="rounded=0;whiteSpace=wrap;html=1;fillColor=#f5f5f5;fontColor=#333333;strokeColor=#666666;" parent="1" vertex="1">
          <mxGeometry x="220" y="1310" width="40" height="30" as="geometry" />
        </mxCell>
        <mxCell id="J4NICDW2dzj8mF2yairB-73" value="GND" style="rounded=0;whiteSpace=wrap;html=1;fillColor=#bac8d3;strokeColor=#23445d;" parent="1" vertex="1">
          <mxGeometry x="260" y="1400" width="150" height="30" as="geometry" />
        </mxCell>
        <mxCell id="J4NICDW2dzj8mF2yairB-74" value="67" style="rounded=0;whiteSpace=wrap;html=1;fillColor=#f5f5f5;fontColor=#333333;strokeColor=#666666;" parent="1" vertex="1">
          <mxGeometry x="220" y="1370" width="40" height="30" as="geometry" />
        </mxCell>
        <mxCell id="J4NICDW2dzj8mF2yairB-75" value="69" style="rounded=0;whiteSpace=wrap;html=1;fillColor=#f5f5f5;fontColor=#333333;strokeColor=#666666;" parent="1" vertex="1">
          <mxGeometry x="220" y="1400" width="40" height="30" as="geometry" />
        </mxCell>
        <mxCell id="J4NICDW2dzj8mF2yairB-78" value="71" style="rounded=0;whiteSpace=wrap;html=1;fillColor=#f5f5f5;fontColor=#333333;strokeColor=#666666;" parent="1" vertex="1">
          <mxGeometry x="220" y="1430" width="40" height="30" as="geometry" />
        </mxCell>
        <mxCell id="J4NICDW2dzj8mF2yairB-79" value="GND" style="rounded=0;whiteSpace=wrap;html=1;fillColor=#bac8d3;strokeColor=#23445d;" parent="1" vertex="1">
          <mxGeometry x="260" y="1520" width="150" height="30" as="geometry" />
        </mxCell>
        <mxCell id="J4NICDW2dzj8mF2yairB-80" value="73" style="rounded=0;whiteSpace=wrap;html=1;fillColor=#f5f5f5;fontColor=#333333;strokeColor=#666666;" parent="1" vertex="1">
          <mxGeometry x="220" y="1460" width="40" height="30" as="geometry" />
        </mxCell>
        <mxCell id="J4NICDW2dzj8mF2yairB-81" value="75" style="rounded=0;whiteSpace=wrap;html=1;fillColor=#f5f5f5;fontColor=#333333;strokeColor=#666666;" parent="1" vertex="1">
          <mxGeometry x="220" y="1490" width="40" height="30" as="geometry" />
        </mxCell>
        <mxCell id="J4NICDW2dzj8mF2yairB-84" value="77" style="rounded=0;whiteSpace=wrap;html=1;fillColor=#f5f5f5;fontColor=#333333;strokeColor=#666666;" parent="1" vertex="1">
          <mxGeometry x="220" y="1520" width="40" height="30" as="geometry" />
        </mxCell>
        <mxCell id="J4NICDW2dzj8mF2yairB-85" value="GND" style="rounded=0;whiteSpace=wrap;html=1;fillColor=#bac8d3;strokeColor=#23445d;" parent="1" vertex="1">
          <mxGeometry x="260" y="1640" width="150" height="30" as="geometry" />
        </mxCell>
        <mxCell id="J4NICDW2dzj8mF2yairB-86" value="79" style="rounded=0;whiteSpace=wrap;html=1;fillColor=#f5f5f5;fontColor=#333333;strokeColor=#666666;" parent="1" vertex="1">
          <mxGeometry x="220" y="1550" width="40" height="30" as="geometry" />
        </mxCell>
        <mxCell id="J4NICDW2dzj8mF2yairB-87" value="81" style="rounded=0;whiteSpace=wrap;html=1;fillColor=#f5f5f5;fontColor=#333333;strokeColor=#666666;" parent="1" vertex="1">
          <mxGeometry x="220" y="1580" width="40" height="30" as="geometry" />
        </mxCell>
        <mxCell id="J4NICDW2dzj8mF2yairB-90" value="83" style="rounded=0;whiteSpace=wrap;html=1;fillColor=#f5f5f5;fontColor=#333333;strokeColor=#666666;" parent="1" vertex="1">
          <mxGeometry x="220" y="1610" width="40" height="30" as="geometry" />
        </mxCell>
        <mxCell id="J4NICDW2dzj8mF2yairB-91" value="GND" style="rounded=0;whiteSpace=wrap;html=1;fillColor=#bac8d3;strokeColor=#23445d;" parent="1" vertex="1">
          <mxGeometry x="260" y="1760" width="150" height="30" as="geometry" />
        </mxCell>
        <mxCell id="J4NICDW2dzj8mF2yairB-92" value="85" style="rounded=0;whiteSpace=wrap;html=1;fillColor=#f5f5f5;fontColor=#333333;strokeColor=#666666;" parent="1" vertex="1">
          <mxGeometry x="220" y="1640" width="40" height="30" as="geometry" />
        </mxCell>
        <mxCell id="J4NICDW2dzj8mF2yairB-93" value="87" style="rounded=0;whiteSpace=wrap;html=1;fillColor=#f5f5f5;fontColor=#333333;strokeColor=#666666;" parent="1" vertex="1">
          <mxGeometry x="220" y="1670" width="40" height="30" as="geometry" />
        </mxCell>
        <mxCell id="J4NICDW2dzj8mF2yairB-96" value="89" style="rounded=0;whiteSpace=wrap;html=1;fillColor=#f5f5f5;fontColor=#333333;strokeColor=#666666;" parent="1" vertex="1">
          <mxGeometry x="220" y="1700" width="40" height="30" as="geometry" />
        </mxCell>
        <mxCell id="J4NICDW2dzj8mF2yairB-97" value="GND" style="rounded=0;whiteSpace=wrap;html=1;fillColor=#bac8d3;strokeColor=#23445d;" parent="1" vertex="1">
          <mxGeometry x="260" y="2000" width="150" height="30" as="geometry" />
        </mxCell>
        <mxCell id="J4NICDW2dzj8mF2yairB-98" value="91" style="rounded=0;whiteSpace=wrap;html=1;fillColor=#f5f5f5;fontColor=#333333;strokeColor=#666666;" parent="1" vertex="1">
          <mxGeometry x="220" y="1730" width="40" height="30" as="geometry" />
        </mxCell>
        <mxCell id="J4NICDW2dzj8mF2yairB-99" value="93" style="rounded=0;whiteSpace=wrap;html=1;fillColor=#f5f5f5;fontColor=#333333;strokeColor=#666666;" parent="1" vertex="1">
          <mxGeometry x="220" y="1760" width="40" height="30" as="geometry" />
        </mxCell>
        <mxCell id="J4NICDW2dzj8mF2yairB-102" value="95" style="rounded=0;whiteSpace=wrap;html=1;fillColor=#f5f5f5;fontColor=#333333;strokeColor=#666666;" parent="1" vertex="1">
          <mxGeometry x="220" y="1790" width="40" height="30" as="geometry" />
        </mxCell>
        <mxCell id="J4NICDW2dzj8mF2yairB-103" value="GND" style="rounded=0;whiteSpace=wrap;html=1;fillColor=#bac8d3;strokeColor=#23445d;" parent="1" vertex="1">
          <mxGeometry x="260" y="2120" width="150" height="30" as="geometry" />
        </mxCell>
        <mxCell id="J4NICDW2dzj8mF2yairB-104" value="97" style="rounded=0;whiteSpace=wrap;html=1;fillColor=#f5f5f5;fontColor=#333333;strokeColor=#666666;" parent="1" vertex="1">
          <mxGeometry x="220" y="1820" width="40" height="30" as="geometry" />
        </mxCell>
        <mxCell id="J4NICDW2dzj8mF2yairB-105" value="99" style="rounded=0;whiteSpace=wrap;html=1;fillColor=#f5f5f5;fontColor=#333333;strokeColor=#666666;" parent="1" vertex="1">
          <mxGeometry x="220" y="1850" width="40" height="30" as="geometry" />
        </mxCell>
        <mxCell id="J4NICDW2dzj8mF2yairB-108" value="101" style="rounded=0;whiteSpace=wrap;html=1;fillColor=#f5f5f5;fontColor=#333333;strokeColor=#666666;" parent="1" vertex="1">
          <mxGeometry x="220" y="1880" width="40" height="30" as="geometry" />
        </mxCell>
        <mxCell id="J4NICDW2dzj8mF2yairB-109" value="GND" style="rounded=0;whiteSpace=wrap;html=1;fillColor=#bac8d3;strokeColor=#23445d;" parent="1" vertex="1">
          <mxGeometry x="260" y="2360" width="150" height="30" as="geometry" />
        </mxCell>
        <mxCell id="J4NICDW2dzj8mF2yairB-110" value="103" style="rounded=0;whiteSpace=wrap;html=1;fillColor=#f5f5f5;fontColor=#333333;strokeColor=#666666;" parent="1" vertex="1">
          <mxGeometry x="220" y="1910" width="40" height="30" as="geometry" />
        </mxCell>
        <mxCell id="J4NICDW2dzj8mF2yairB-111" value="105" style="rounded=0;whiteSpace=wrap;html=1;fillColor=#f5f5f5;fontColor=#333333;strokeColor=#666666;" parent="1" vertex="1">
          <mxGeometry x="220" y="1940" width="40" height="30" as="geometry" />
        </mxCell>
        <mxCell id="J4NICDW2dzj8mF2yairB-114" value="107" style="rounded=0;whiteSpace=wrap;html=1;fillColor=#f5f5f5;fontColor=#333333;strokeColor=#666666;" parent="1" vertex="1">
          <mxGeometry x="220" y="1970" width="40" height="30" as="geometry" />
        </mxCell>
        <mxCell id="J4NICDW2dzj8mF2yairB-116" value="109" style="rounded=0;whiteSpace=wrap;html=1;fillColor=#f5f5f5;fontColor=#333333;strokeColor=#666666;" parent="1" vertex="1">
          <mxGeometry x="220" y="2000" width="40" height="30" as="geometry" />
        </mxCell>
        <mxCell id="J4NICDW2dzj8mF2yairB-117" value="111" style="rounded=0;whiteSpace=wrap;html=1;fillColor=#f5f5f5;fontColor=#333333;strokeColor=#666666;" parent="1" vertex="1">
          <mxGeometry x="220" y="2030" width="40" height="30" as="geometry" />
        </mxCell>
        <mxCell id="J4NICDW2dzj8mF2yairB-146" value="113" style="rounded=0;whiteSpace=wrap;html=1;fillColor=#f5f5f5;fontColor=#333333;strokeColor=#666666;" parent="1" vertex="1">
          <mxGeometry x="220" y="2060" width="40" height="30" as="geometry" />
        </mxCell>
        <mxCell id="J4NICDW2dzj8mF2yairB-148" value="115" style="rounded=0;whiteSpace=wrap;html=1;fillColor=#f5f5f5;fontColor=#333333;strokeColor=#666666;" parent="1" vertex="1">
          <mxGeometry x="220" y="2090" width="40" height="30" as="geometry" />
        </mxCell>
        <mxCell id="J4NICDW2dzj8mF2yairB-149" value="SE1" style="rounded=0;whiteSpace=wrap;html=1;fillColor=#fff2cc;strokeColor=#d6b656;" parent="1" vertex="1">
          <mxGeometry x="260" y="2630" width="150" height="30" as="geometry" />
        </mxCell>
        <mxCell id="J4NICDW2dzj8mF2yairB-150" value="SE2" style="rounded=0;whiteSpace=wrap;html=1;fillColor=#fff2cc;strokeColor=#d6b656;" parent="1" vertex="1">
          <mxGeometry x="260" y="2660" width="150" height="30" as="geometry" />
        </mxCell>
        <mxCell id="J4NICDW2dzj8mF2yairB-151" value="117" style="rounded=0;whiteSpace=wrap;html=1;fillColor=#f5f5f5;fontColor=#333333;strokeColor=#666666;" parent="1" vertex="1">
          <mxGeometry x="220" y="2120" width="40" height="30" as="geometry" />
        </mxCell>
        <mxCell id="J4NICDW2dzj8mF2yairB-152" value="119" style="rounded=0;whiteSpace=wrap;html=1;fillColor=#f5f5f5;fontColor=#333333;strokeColor=#666666;" parent="1" vertex="1">
          <mxGeometry x="220" y="2150" width="40" height="30" as="geometry" />
        </mxCell>
        <mxCell id="J4NICDW2dzj8mF2yairB-154" value="121" style="rounded=0;whiteSpace=wrap;html=1;fillColor=#f5f5f5;fontColor=#333333;strokeColor=#666666;" parent="1" vertex="1">
          <mxGeometry x="220" y="2180" width="40" height="30" as="geometry" />
        </mxCell>
        <mxCell id="J4NICDW2dzj8mF2yairB-156" value="SE0" style="rounded=0;whiteSpace=wrap;html=1;fillColor=#fff2cc;strokeColor=#d6b656;" parent="1" vertex="1">
          <mxGeometry x="260" y="2570" width="150" height="30" as="geometry" />
        </mxCell>
        <mxCell id="J4NICDW2dzj8mF2yairB-157" value="123" style="rounded=0;whiteSpace=wrap;html=1;fillColor=#f5f5f5;fontColor=#333333;strokeColor=#666666;" parent="1" vertex="1">
          <mxGeometry x="220" y="2210" width="40" height="30" as="geometry" />
        </mxCell>
        <mxCell id="J4NICDW2dzj8mF2yairB-158" value="125" style="rounded=0;whiteSpace=wrap;html=1;fillColor=#f5f5f5;fontColor=#333333;strokeColor=#666666;" parent="1" vertex="1">
          <mxGeometry x="220" y="2240" width="40" height="30" as="geometry" />
        </mxCell>
        <mxCell id="J4NICDW2dzj8mF2yairB-159" value="GND" style="rounded=0;whiteSpace=wrap;html=1;fillColor=#bac8d3;strokeColor=#23445d;" parent="1" vertex="1">
          <mxGeometry x="260" y="2690" width="150" height="30" as="geometry" />
        </mxCell>
        <mxCell id="J4NICDW2dzj8mF2yairB-160" value="127" style="rounded=0;whiteSpace=wrap;html=1;fillColor=#f5f5f5;fontColor=#333333;strokeColor=#666666;" parent="1" vertex="1">
          <mxGeometry x="220" y="2270" width="40" height="30" as="geometry" />
        </mxCell>
        <mxCell id="J4NICDW2dzj8mF2yairB-161" value="SE5" style="rounded=0;whiteSpace=wrap;html=1;fillColor=#fff2cc;strokeColor=#d6b656;" parent="1" vertex="1">
          <mxGeometry x="260" y="2810" width="150" height="30" as="geometry" />
        </mxCell>
        <mxCell id="J4NICDW2dzj8mF2yairB-162" value="SE6" style="rounded=0;whiteSpace=wrap;html=1;fillColor=#fff2cc;strokeColor=#d6b656;" parent="1" vertex="1">
          <mxGeometry x="260" y="2840" width="150" height="30" as="geometry" />
        </mxCell>
        <mxCell id="J4NICDW2dzj8mF2yairB-163" value="129" style="rounded=0;whiteSpace=wrap;html=1;fillColor=#f5f5f5;fontColor=#333333;strokeColor=#666666;" parent="1" vertex="1">
          <mxGeometry x="220" y="2300" width="40" height="30" as="geometry" />
        </mxCell>
        <mxCell id="J4NICDW2dzj8mF2yairB-164" value="131" style="rounded=0;whiteSpace=wrap;html=1;fillColor=#f5f5f5;fontColor=#333333;strokeColor=#666666;" parent="1" vertex="1">
          <mxGeometry x="220" y="2330" width="40" height="30" as="geometry" />
        </mxCell>
        <mxCell id="J4NICDW2dzj8mF2yairB-165" value="GND" style="rounded=0;whiteSpace=wrap;html=1;fillColor=#bac8d3;strokeColor=#23445d;" parent="1" vertex="1">
          <mxGeometry x="260" y="2870" width="150" height="30" as="geometry" />
        </mxCell>
        <mxCell id="J4NICDW2dzj8mF2yairB-166" value="133" style="rounded=0;whiteSpace=wrap;html=1;fillColor=#f5f5f5;fontColor=#333333;strokeColor=#666666;" parent="1" vertex="1">
          <mxGeometry x="220" y="2360" width="40" height="30" as="geometry" />
        </mxCell>
        <mxCell id="J4NICDW2dzj8mF2yairB-167" value="SE7" style="rounded=0;whiteSpace=wrap;html=1;fillColor=#fff2cc;strokeColor=#d6b656;" parent="1" vertex="1">
          <mxGeometry x="260" y="2900" width="150" height="30" as="geometry" />
        </mxCell>
        <mxCell id="J4NICDW2dzj8mF2yairB-168" value="SE8" style="rounded=0;whiteSpace=wrap;html=1;fillColor=#fff2cc;strokeColor=#d6b656;" parent="1" vertex="1">
          <mxGeometry x="260" y="2930" width="150" height="30" as="geometry" />
        </mxCell>
        <mxCell id="J4NICDW2dzj8mF2yairB-169" value="135" style="rounded=0;whiteSpace=wrap;html=1;fillColor=#f5f5f5;fontColor=#333333;strokeColor=#666666;" parent="1" vertex="1">
          <mxGeometry x="220" y="2390" width="40" height="30" as="geometry" />
        </mxCell>
        <mxCell id="J4NICDW2dzj8mF2yairB-170" value="137" style="rounded=0;whiteSpace=wrap;html=1;fillColor=#f5f5f5;fontColor=#333333;strokeColor=#666666;" parent="1" vertex="1">
          <mxGeometry x="220" y="2420" width="40" height="30" as="geometry" />
        </mxCell>
        <mxCell id="J4NICDW2dzj8mF2yairB-171" value="GND" style="rounded=0;whiteSpace=wrap;html=1;fillColor=#bac8d3;strokeColor=#23445d;" parent="1" vertex="1">
          <mxGeometry x="260" y="2960" width="150" height="30" as="geometry" />
        </mxCell>
        <mxCell id="J4NICDW2dzj8mF2yairB-172" value="139" style="rounded=0;whiteSpace=wrap;html=1;fillColor=#f5f5f5;fontColor=#333333;strokeColor=#666666;" parent="1" vertex="1">
          <mxGeometry x="220" y="2450" width="40" height="30" as="geometry" />
        </mxCell>
        <mxCell id="J4NICDW2dzj8mF2yairB-173" value="SE9" style="rounded=0;whiteSpace=wrap;html=1;fillColor=#fff2cc;strokeColor=#d6b656;" parent="1" vertex="1">
          <mxGeometry x="260" y="2990" width="150" height="30" as="geometry" />
        </mxCell>
        <mxCell id="J4NICDW2dzj8mF2yairB-174" value="SE10" style="rounded=0;whiteSpace=wrap;html=1;fillColor=#fff2cc;strokeColor=#d6b656;" parent="1" vertex="1">
          <mxGeometry x="260" y="3020" width="150" height="30" as="geometry" />
        </mxCell>
        <mxCell id="J4NICDW2dzj8mF2yairB-175" value="141" style="rounded=0;whiteSpace=wrap;html=1;fillColor=#f5f5f5;fontColor=#333333;strokeColor=#666666;" parent="1" vertex="1">
          <mxGeometry x="220" y="2480" width="40" height="30" as="geometry" />
        </mxCell>
        <mxCell id="J4NICDW2dzj8mF2yairB-176" value="143" style="rounded=0;whiteSpace=wrap;html=1;fillColor=#f5f5f5;fontColor=#333333;strokeColor=#666666;" parent="1" vertex="1">
          <mxGeometry x="220" y="2570" width="40" height="30" as="geometry" />
        </mxCell>
        <mxCell id="J4NICDW2dzj8mF2yairB-177" value="GND" style="rounded=0;whiteSpace=wrap;html=1;fillColor=#bac8d3;strokeColor=#23445d;" parent="1" vertex="1">
          <mxGeometry x="260" y="3050" width="150" height="30" as="geometry" />
        </mxCell>
        <mxCell id="J4NICDW2dzj8mF2yairB-178" value="145" style="rounded=0;whiteSpace=wrap;html=1;fillColor=#f5f5f5;fontColor=#333333;strokeColor=#666666;" parent="1" vertex="1">
          <mxGeometry x="220" y="2600" width="40" height="30" as="geometry" />
        </mxCell>
        <mxCell id="J4NICDW2dzj8mF2yairB-179" value="SE11" style="rounded=0;whiteSpace=wrap;html=1;fillColor=#fff2cc;strokeColor=#d6b656;" parent="1" vertex="1">
          <mxGeometry x="260" y="3080" width="150" height="30" as="geometry" />
        </mxCell>
        <mxCell id="J4NICDW2dzj8mF2yairB-180" value="SE12" style="rounded=0;whiteSpace=wrap;html=1;fillColor=#fff2cc;strokeColor=#d6b656;" parent="1" vertex="1">
          <mxGeometry x="260" y="3110" width="150" height="30" as="geometry" />
        </mxCell>
        <mxCell id="J4NICDW2dzj8mF2yairB-181" value="147" style="rounded=0;whiteSpace=wrap;html=1;fillColor=#f5f5f5;fontColor=#333333;strokeColor=#666666;" parent="1" vertex="1">
          <mxGeometry x="220" y="2630" width="40" height="30" as="geometry" />
        </mxCell>
        <mxCell id="J4NICDW2dzj8mF2yairB-182" value="149" style="rounded=0;whiteSpace=wrap;html=1;fillColor=#f5f5f5;fontColor=#333333;strokeColor=#666666;" parent="1" vertex="1">
          <mxGeometry x="220" y="2660" width="40" height="30" as="geometry" />
        </mxCell>
        <mxCell id="J4NICDW2dzj8mF2yairB-183" value="GND" style="rounded=0;whiteSpace=wrap;html=1;fillColor=#bac8d3;strokeColor=#23445d;" parent="1" vertex="1">
          <mxGeometry x="260" y="3140" width="150" height="30" as="geometry" />
        </mxCell>
        <mxCell id="J4NICDW2dzj8mF2yairB-184" value="151" style="rounded=0;whiteSpace=wrap;html=1;fillColor=#f5f5f5;fontColor=#333333;strokeColor=#666666;" parent="1" vertex="1">
          <mxGeometry x="220" y="2690" width="40" height="30" as="geometry" />
        </mxCell>
        <mxCell id="J4NICDW2dzj8mF2yairB-185" value="SE13" style="rounded=0;whiteSpace=wrap;html=1;fillColor=#fff2cc;strokeColor=#d6b656;" parent="1" vertex="1">
          <mxGeometry x="260" y="3170" width="150" height="30" as="geometry" />
        </mxCell>
        <mxCell id="J4NICDW2dzj8mF2yairB-186" value="SE14" style="rounded=0;whiteSpace=wrap;html=1;fillColor=#fff2cc;strokeColor=#d6b656;" parent="1" vertex="1">
          <mxGeometry x="260" y="3200" width="150" height="30" as="geometry" />
        </mxCell>
        <mxCell id="J4NICDW2dzj8mF2yairB-187" value="153" style="rounded=0;whiteSpace=wrap;html=1;fillColor=#f5f5f5;fontColor=#333333;strokeColor=#666666;" parent="1" vertex="1">
          <mxGeometry x="220" y="2720" width="40" height="30" as="geometry" />
        </mxCell>
        <mxCell id="J4NICDW2dzj8mF2yairB-188" value="155" style="rounded=0;whiteSpace=wrap;html=1;fillColor=#f5f5f5;fontColor=#333333;strokeColor=#666666;" parent="1" vertex="1">
          <mxGeometry x="220" y="2750" width="40" height="30" as="geometry" />
        </mxCell>
        <mxCell id="J4NICDW2dzj8mF2yairB-189" value="GND" style="rounded=0;whiteSpace=wrap;html=1;fillColor=#bac8d3;strokeColor=#23445d;" parent="1" vertex="1">
          <mxGeometry x="260" y="3230" width="150" height="30" as="geometry" />
        </mxCell>
        <mxCell id="J4NICDW2dzj8mF2yairB-190" value="157" style="rounded=0;whiteSpace=wrap;html=1;fillColor=#f5f5f5;fontColor=#333333;strokeColor=#666666;" parent="1" vertex="1">
          <mxGeometry x="220" y="2780" width="40" height="30" as="geometry" />
        </mxCell>
        <mxCell id="J4NICDW2dzj8mF2yairB-191" value="159" style="rounded=0;whiteSpace=wrap;html=1;fillColor=#f5f5f5;fontColor=#333333;strokeColor=#666666;" parent="1" vertex="1">
          <mxGeometry x="220" y="2810" width="40" height="30" as="geometry" />
        </mxCell>
        <mxCell id="J4NICDW2dzj8mF2yairB-193" value="Key" style="rounded=0;whiteSpace=wrap;html=1;fillColor=#f5f5f5;strokeColor=#666666;fontColor=#333333;fontStyle=2" parent="1" vertex="1">
          <mxGeometry x="220" y="2510" width="190" height="60" as="geometry" />
        </mxCell>
        <mxCell id="J4NICDW2dzj8mF2yairB-196" value="SE15" style="rounded=0;whiteSpace=wrap;html=1;fillColor=#fff2cc;strokeColor=#d6b656;" parent="1" vertex="1">
          <mxGeometry x="260" y="3260" width="150" height="30" as="geometry" />
        </mxCell>
        <mxCell id="J4NICDW2dzj8mF2yairB-197" value="SE16" style="rounded=0;whiteSpace=wrap;html=1;fillColor=#fff2cc;strokeColor=#d6b656;" parent="1" vertex="1">
          <mxGeometry x="260" y="3290" width="150" height="30" as="geometry" />
        </mxCell>
        <mxCell id="J4NICDW2dzj8mF2yairB-198" value="161" style="rounded=0;whiteSpace=wrap;html=1;fillColor=#f5f5f5;fontColor=#333333;strokeColor=#666666;" parent="1" vertex="1">
          <mxGeometry x="220" y="2840" width="40" height="30" as="geometry" />
        </mxCell>
        <mxCell id="J4NICDW2dzj8mF2yairB-199" value="GND" style="rounded=0;whiteSpace=wrap;html=1;fillColor=#bac8d3;strokeColor=#23445d;" parent="1" vertex="1">
          <mxGeometry x="260" y="3320" width="150" height="30" as="geometry" />
        </mxCell>
        <mxCell id="J4NICDW2dzj8mF2yairB-200" value="163" style="rounded=0;whiteSpace=wrap;html=1;fillColor=#f5f5f5;fontColor=#333333;strokeColor=#666666;" parent="1" vertex="1">
          <mxGeometry x="220" y="2870" width="40" height="30" as="geometry" />
        </mxCell>
        <mxCell id="J4NICDW2dzj8mF2yairB-201" value="SE17" style="rounded=0;whiteSpace=wrap;html=1;fillColor=#fff2cc;strokeColor=#d6b656;" parent="1" vertex="1">
          <mxGeometry x="260" y="3350" width="150" height="30" as="geometry" />
        </mxCell>
        <mxCell id="J4NICDW2dzj8mF2yairB-202" value="SE18" style="rounded=0;whiteSpace=wrap;html=1;fillColor=#fff2cc;strokeColor=#d6b656;" parent="1" vertex="1">
          <mxGeometry x="260" y="3380" width="150" height="30" as="geometry" />
        </mxCell>
        <mxCell id="J4NICDW2dzj8mF2yairB-203" value="165" style="rounded=0;whiteSpace=wrap;html=1;fillColor=#f5f5f5;fontColor=#333333;strokeColor=#666666;" parent="1" vertex="1">
          <mxGeometry x="220" y="2900" width="40" height="30" as="geometry" />
        </mxCell>
        <mxCell id="J4NICDW2dzj8mF2yairB-204" value="167" style="rounded=0;whiteSpace=wrap;html=1;fillColor=#f5f5f5;fontColor=#333333;strokeColor=#666666;" parent="1" vertex="1">
          <mxGeometry x="220" y="2930" width="40" height="30" as="geometry" />
        </mxCell>
        <mxCell id="J4NICDW2dzj8mF2yairB-205" value="GND" style="rounded=0;whiteSpace=wrap;html=1;fillColor=#bac8d3;strokeColor=#23445d;" parent="1" vertex="1">
          <mxGeometry x="260" y="3410" width="150" height="30" as="geometry" />
        </mxCell>
        <mxCell id="J4NICDW2dzj8mF2yairB-206" value="169" style="rounded=0;whiteSpace=wrap;html=1;fillColor=#f5f5f5;fontColor=#333333;strokeColor=#666666;" parent="1" vertex="1">
          <mxGeometry x="220" y="2960" width="40" height="30" as="geometry" />
        </mxCell>
        <mxCell id="J4NICDW2dzj8mF2yairB-207" value="171" style="rounded=0;whiteSpace=wrap;html=1;fillColor=#f5f5f5;fontColor=#333333;strokeColor=#666666;" parent="1" vertex="1">
          <mxGeometry x="220" y="2990" width="40" height="30" as="geometry" />
        </mxCell>
        <mxCell id="J4NICDW2dzj8mF2yairB-214" value="SE19" style="rounded=0;whiteSpace=wrap;html=1;fillColor=#fff2cc;strokeColor=#d6b656;" parent="1" vertex="1">
          <mxGeometry x="260" y="3440" width="150" height="30" as="geometry" />
        </mxCell>
        <mxCell id="J4NICDW2dzj8mF2yairB-215" value="SE20" style="rounded=0;whiteSpace=wrap;html=1;fillColor=#fff2cc;strokeColor=#d6b656;" parent="1" vertex="1">
          <mxGeometry x="260" y="3470" width="150" height="30" as="geometry" />
        </mxCell>
        <mxCell id="J4NICDW2dzj8mF2yairB-216" value="173" style="rounded=0;whiteSpace=wrap;html=1;fillColor=#f5f5f5;fontColor=#333333;strokeColor=#666666;" parent="1" vertex="1">
          <mxGeometry x="220" y="3020" width="40" height="30" as="geometry" />
        </mxCell>
        <mxCell id="J4NICDW2dzj8mF2yairB-217" value="GND" style="rounded=0;whiteSpace=wrap;html=1;fillColor=#bac8d3;strokeColor=#23445d;" parent="1" vertex="1">
          <mxGeometry x="260" y="3500" width="150" height="30" as="geometry" />
        </mxCell>
        <mxCell id="J4NICDW2dzj8mF2yairB-218" value="175" style="rounded=0;whiteSpace=wrap;html=1;fillColor=#f5f5f5;fontColor=#333333;strokeColor=#666666;" parent="1" vertex="1">
          <mxGeometry x="220" y="3050" width="40" height="30" as="geometry" />
        </mxCell>
        <mxCell id="J4NICDW2dzj8mF2yairB-219" value="SE21" style="rounded=0;whiteSpace=wrap;html=1;fillColor=#fff2cc;strokeColor=#d6b656;" parent="1" vertex="1">
          <mxGeometry x="260" y="3530" width="150" height="30" as="geometry" />
        </mxCell>
        <mxCell id="J4NICDW2dzj8mF2yairB-220" value="SE22" style="rounded=0;whiteSpace=wrap;html=1;fillColor=#fff2cc;strokeColor=#d6b656;" parent="1" vertex="1">
          <mxGeometry x="260" y="3560" width="150" height="30" as="geometry" />
        </mxCell>
        <mxCell id="J4NICDW2dzj8mF2yairB-221" value="177" style="rounded=0;whiteSpace=wrap;html=1;fillColor=#f5f5f5;fontColor=#333333;strokeColor=#666666;" parent="1" vertex="1">
          <mxGeometry x="220" y="3080" width="40" height="30" as="geometry" />
        </mxCell>
        <mxCell id="J4NICDW2dzj8mF2yairB-222" value="179" style="rounded=0;whiteSpace=wrap;html=1;fillColor=#f5f5f5;fontColor=#333333;strokeColor=#666666;" parent="1" vertex="1">
          <mxGeometry x="220" y="3110" width="40" height="30" as="geometry" />
        </mxCell>
        <mxCell id="J4NICDW2dzj8mF2yairB-223" value="GND" style="rounded=0;whiteSpace=wrap;html=1;fillColor=#bac8d3;strokeColor=#23445d;" parent="1" vertex="1">
          <mxGeometry x="260" y="3590" width="150" height="30" as="geometry" />
        </mxCell>
        <mxCell id="J4NICDW2dzj8mF2yairB-224" value="181" style="rounded=0;whiteSpace=wrap;html=1;fillColor=#f5f5f5;fontColor=#333333;strokeColor=#666666;" parent="1" vertex="1">
          <mxGeometry x="220" y="3140" width="40" height="30" as="geometry" />
        </mxCell>
        <mxCell id="J4NICDW2dzj8mF2yairB-225" value="183" style="rounded=0;whiteSpace=wrap;html=1;fillColor=#f5f5f5;fontColor=#333333;strokeColor=#666666;" parent="1" vertex="1">
          <mxGeometry x="220" y="3170" width="40" height="30" as="geometry" />
        </mxCell>
        <mxCell id="J4NICDW2dzj8mF2yairB-226" value="SE23" style="rounded=0;whiteSpace=wrap;html=1;fillColor=#fff2cc;strokeColor=#d6b656;" parent="1" vertex="1">
          <mxGeometry x="260" y="3620" width="150" height="30" as="geometry" />
        </mxCell>
        <mxCell id="J4NICDW2dzj8mF2yairB-227" value="SE24" style="rounded=0;whiteSpace=wrap;html=1;fillColor=#fff2cc;strokeColor=#d6b656;" parent="1" vertex="1">
          <mxGeometry x="260" y="3650" width="150" height="30" as="geometry" />
        </mxCell>
        <mxCell id="J4NICDW2dzj8mF2yairB-228" value="185" style="rounded=0;whiteSpace=wrap;html=1;fillColor=#f5f5f5;fontColor=#333333;strokeColor=#666666;" parent="1" vertex="1">
          <mxGeometry x="220" y="3200" width="40" height="30" as="geometry" />
        </mxCell>
        <mxCell id="J4NICDW2dzj8mF2yairB-229" value="GND" style="rounded=0;whiteSpace=wrap;html=1;fillColor=#bac8d3;strokeColor=#23445d;" parent="1" vertex="1">
          <mxGeometry x="260" y="3680" width="150" height="30" as="geometry" />
        </mxCell>
        <mxCell id="J4NICDW2dzj8mF2yairB-230" value="187" style="rounded=0;whiteSpace=wrap;html=1;fillColor=#f5f5f5;fontColor=#333333;strokeColor=#666666;" parent="1" vertex="1">
          <mxGeometry x="220" y="3230" width="40" height="30" as="geometry" />
        </mxCell>
        <mxCell id="J4NICDW2dzj8mF2yairB-231" value="SE25" style="rounded=0;whiteSpace=wrap;html=1;fillColor=#fff2cc;strokeColor=#d6b656;" parent="1" vertex="1">
          <mxGeometry x="260" y="3710" width="150" height="30" as="geometry" />
        </mxCell>
        <mxCell id="J4NICDW2dzj8mF2yairB-232" value="SE26" style="rounded=0;whiteSpace=wrap;html=1;fillColor=#fff2cc;strokeColor=#d6b656;" parent="1" vertex="1">
          <mxGeometry x="260" y="3740" width="150" height="30" as="geometry" />
        </mxCell>
        <mxCell id="J4NICDW2dzj8mF2yairB-233" value="189" style="rounded=0;whiteSpace=wrap;html=1;fillColor=#f5f5f5;fontColor=#333333;strokeColor=#666666;" parent="1" vertex="1">
          <mxGeometry x="220" y="3260" width="40" height="30" as="geometry" />
        </mxCell>
        <mxCell id="J4NICDW2dzj8mF2yairB-234" value="191" style="rounded=0;whiteSpace=wrap;html=1;fillColor=#f5f5f5;fontColor=#333333;strokeColor=#666666;" parent="1" vertex="1">
          <mxGeometry x="220" y="3290" width="40" height="30" as="geometry" />
        </mxCell>
        <mxCell id="J4NICDW2dzj8mF2yairB-235" value="GND" style="rounded=0;whiteSpace=wrap;html=1;fillColor=#bac8d3;strokeColor=#23445d;" parent="1" vertex="1">
          <mxGeometry x="260" y="3770" width="150" height="30" as="geometry" />
        </mxCell>
        <mxCell id="J4NICDW2dzj8mF2yairB-236" value="193" style="rounded=0;whiteSpace=wrap;html=1;fillColor=#f5f5f5;fontColor=#333333;strokeColor=#666666;" parent="1" vertex="1">
          <mxGeometry x="220" y="3320" width="40" height="30" as="geometry" />
        </mxCell>
        <mxCell id="J4NICDW2dzj8mF2yairB-237" value="195" style="rounded=0;whiteSpace=wrap;html=1;fillColor=#f5f5f5;fontColor=#333333;strokeColor=#666666;" parent="1" vertex="1">
          <mxGeometry x="220" y="3350" width="40" height="30" as="geometry" />
        </mxCell>
        <mxCell id="J4NICDW2dzj8mF2yairB-238" value="SE27" style="rounded=0;whiteSpace=wrap;html=1;fillColor=#fff2cc;strokeColor=#d6b656;" parent="1" vertex="1">
          <mxGeometry x="260" y="3800" width="150" height="30" as="geometry" />
        </mxCell>
        <mxCell id="J4NICDW2dzj8mF2yairB-239" value="GND" style="rounded=0;whiteSpace=wrap;html=1;fillColor=#bac8d3;strokeColor=#23445d;" parent="1" vertex="1">
          <mxGeometry x="260" y="3860" width="150" height="30" as="geometry" />
        </mxCell>
        <mxCell id="J4NICDW2dzj8mF2yairB-240" value="197" style="rounded=0;whiteSpace=wrap;html=1;fillColor=#f5f5f5;fontColor=#333333;strokeColor=#666666;" parent="1" vertex="1">
          <mxGeometry x="220" y="3380" width="40" height="30" as="geometry" />
        </mxCell>
        <mxCell id="J4NICDW2dzj8mF2yairB-241" value="SE29" style="rounded=0;whiteSpace=wrap;html=1;fillColor=#fff2cc;strokeColor=#d6b656;" parent="1" vertex="1">
          <mxGeometry x="260" y="3890" width="150" height="30" as="geometry" />
        </mxCell>
        <mxCell id="J4NICDW2dzj8mF2yairB-242" value="SE30" style="rounded=0;whiteSpace=wrap;html=1;fillColor=#fff2cc;strokeColor=#d6b656;" parent="1" vertex="1">
          <mxGeometry x="260" y="3920" width="150" height="30" as="geometry" />
        </mxCell>
        <mxCell id="J4NICDW2dzj8mF2yairB-243" value="199" style="rounded=0;whiteSpace=wrap;html=1;fillColor=#f5f5f5;fontColor=#333333;strokeColor=#666666;" parent="1" vertex="1">
          <mxGeometry x="220" y="3410" width="40" height="30" as="geometry" />
        </mxCell>
        <mxCell id="J4NICDW2dzj8mF2yairB-244" value="201" style="rounded=0;whiteSpace=wrap;html=1;fillColor=#f5f5f5;fontColor=#333333;strokeColor=#666666;" parent="1" vertex="1">
          <mxGeometry x="220" y="3440" width="40" height="30" as="geometry" />
        </mxCell>
        <mxCell id="J4NICDW2dzj8mF2yairB-245" value="GND" style="rounded=0;whiteSpace=wrap;html=1;fillColor=#bac8d3;strokeColor=#23445d;" parent="1" vertex="1">
          <mxGeometry x="260" y="3950" width="150" height="30" as="geometry" />
        </mxCell>
        <mxCell id="J4NICDW2dzj8mF2yairB-246" value="203" style="rounded=0;whiteSpace=wrap;html=1;fillColor=#f5f5f5;fontColor=#333333;strokeColor=#666666;" parent="1" vertex="1">
          <mxGeometry x="220" y="3470" width="40" height="30" as="geometry" />
        </mxCell>
        <mxCell id="J4NICDW2dzj8mF2yairB-247" value="SE31" style="rounded=0;whiteSpace=wrap;html=1;fillColor=#fff2cc;strokeColor=#d6b656;" parent="1" vertex="1">
          <mxGeometry x="260" y="3980" width="150" height="30" as="geometry" />
        </mxCell>
        <mxCell id="J4NICDW2dzj8mF2yairB-248" value="SE32" style="rounded=0;whiteSpace=wrap;html=1;fillColor=#fff2cc;strokeColor=#d6b656;" parent="1" vertex="1">
          <mxGeometry x="260" y="4010" width="150" height="30" as="geometry" />
        </mxCell>
        <mxCell id="J4NICDW2dzj8mF2yairB-249" value="205" style="rounded=0;whiteSpace=wrap;html=1;fillColor=#f5f5f5;fontColor=#333333;strokeColor=#666666;" parent="1" vertex="1">
          <mxGeometry x="220" y="3500" width="40" height="30" as="geometry" />
        </mxCell>
        <mxCell id="J4NICDW2dzj8mF2yairB-250" value="207" style="rounded=0;whiteSpace=wrap;html=1;fillColor=#f5f5f5;fontColor=#333333;strokeColor=#666666;" parent="1" vertex="1">
          <mxGeometry x="220" y="3530" width="40" height="30" as="geometry" />
        </mxCell>
        <mxCell id="J4NICDW2dzj8mF2yairB-251" value="GND" style="rounded=0;whiteSpace=wrap;html=1;fillColor=#bac8d3;strokeColor=#23445d;" parent="1" vertex="1">
          <mxGeometry x="260" y="4040" width="150" height="30" as="geometry" />
        </mxCell>
        <mxCell id="J4NICDW2dzj8mF2yairB-252" value="209" style="rounded=0;whiteSpace=wrap;html=1;fillColor=#f5f5f5;fontColor=#333333;strokeColor=#666666;" parent="1" vertex="1">
          <mxGeometry x="220" y="3560" width="40" height="30" as="geometry" />
        </mxCell>
        <mxCell id="J4NICDW2dzj8mF2yairB-253" value="211" style="rounded=0;whiteSpace=wrap;html=1;fillColor=#f5f5f5;fontColor=#333333;strokeColor=#666666;" parent="1" vertex="1">
          <mxGeometry x="220" y="3590" width="40" height="30" as="geometry" />
        </mxCell>
        <mxCell id="J4NICDW2dzj8mF2yairB-254" value="SE33" style="rounded=0;whiteSpace=wrap;html=1;fillColor=#fff2cc;strokeColor=#d6b656;" parent="1" vertex="1">
          <mxGeometry x="260" y="4070" width="150" height="30" as="geometry" />
        </mxCell>
        <mxCell id="J4NICDW2dzj8mF2yairB-255" value="SE34" style="rounded=0;whiteSpace=wrap;html=1;fillColor=#fff2cc;strokeColor=#d6b656;" parent="1" vertex="1">
          <mxGeometry x="260" y="4100" width="150" height="30" as="geometry" />
        </mxCell>
        <mxCell id="J4NICDW2dzj8mF2yairB-256" value="213" style="rounded=0;whiteSpace=wrap;html=1;fillColor=#f5f5f5;fontColor=#333333;strokeColor=#666666;" parent="1" vertex="1">
          <mxGeometry x="220" y="3620" width="40" height="30" as="geometry" />
        </mxCell>
        <mxCell id="J4NICDW2dzj8mF2yairB-257" value="GND" style="rounded=0;whiteSpace=wrap;html=1;fillColor=#bac8d3;strokeColor=#23445d;" parent="1" vertex="1">
          <mxGeometry x="260" y="4160" width="150" height="30" as="geometry" />
        </mxCell>
        <mxCell id="J4NICDW2dzj8mF2yairB-258" value="215" style="rounded=0;whiteSpace=wrap;html=1;fillColor=#f5f5f5;fontColor=#333333;strokeColor=#666666;" parent="1" vertex="1">
          <mxGeometry x="220" y="3650" width="40" height="30" as="geometry" />
        </mxCell>
        <mxCell id="J4NICDW2dzj8mF2yairB-261" value="217" style="rounded=0;whiteSpace=wrap;html=1;fillColor=#f5f5f5;fontColor=#333333;strokeColor=#666666;" parent="1" vertex="1">
          <mxGeometry x="220" y="3680" width="40" height="30" as="geometry" />
        </mxCell>
        <mxCell id="J4NICDW2dzj8mF2yairB-262" value="219" style="rounded=0;whiteSpace=wrap;html=1;fillColor=#f5f5f5;fontColor=#333333;strokeColor=#666666;" parent="1" vertex="1">
          <mxGeometry x="220" y="3710" width="40" height="30" as="geometry" />
        </mxCell>
        <mxCell id="J4NICDW2dzj8mF2yairB-264" value="221" style="rounded=0;whiteSpace=wrap;html=1;fillColor=#f5f5f5;fontColor=#333333;strokeColor=#666666;" parent="1" vertex="1">
          <mxGeometry x="220" y="3740" width="40" height="30" as="geometry" />
        </mxCell>
        <mxCell id="J4NICDW2dzj8mF2yairB-265" value="223" style="rounded=0;whiteSpace=wrap;html=1;fillColor=#f5f5f5;fontColor=#333333;strokeColor=#666666;" parent="1" vertex="1">
          <mxGeometry x="220" y="3770" width="40" height="30" as="geometry" />
        </mxCell>
        <mxCell id="J4NICDW2dzj8mF2yairB-268" value="225" style="rounded=0;whiteSpace=wrap;html=1;fillColor=#f5f5f5;fontColor=#333333;strokeColor=#666666;" parent="1" vertex="1">
          <mxGeometry x="220" y="3800" width="40" height="30" as="geometry" />
        </mxCell>
        <mxCell id="J4NICDW2dzj8mF2yairB-270" value="227" style="rounded=0;whiteSpace=wrap;html=1;fillColor=#f5f5f5;fontColor=#333333;strokeColor=#666666;" parent="1" vertex="1">
          <mxGeometry x="220" y="3830" width="40" height="30" as="geometry" />
        </mxCell>
        <mxCell id="J4NICDW2dzj8mF2yairB-273" value="229" style="rounded=0;whiteSpace=wrap;html=1;fillColor=#f5f5f5;fontColor=#333333;strokeColor=#666666;" parent="1" vertex="1">
          <mxGeometry x="220" y="3860" width="40" height="30" as="geometry" />
        </mxCell>
        <mxCell id="J4NICDW2dzj8mF2yairB-274" value="231" style="rounded=0;whiteSpace=wrap;html=1;fillColor=#f5f5f5;fontColor=#333333;strokeColor=#666666;" parent="1" vertex="1">
          <mxGeometry x="220" y="3890" width="40" height="30" as="geometry" />
        </mxCell>
        <mxCell id="J4NICDW2dzj8mF2yairB-276" value="233" style="rounded=0;whiteSpace=wrap;html=1;fillColor=#f5f5f5;fontColor=#333333;strokeColor=#666666;" parent="1" vertex="1">
          <mxGeometry x="220" y="3920" width="40" height="30" as="geometry" />
        </mxCell>
        <mxCell id="J4NICDW2dzj8mF2yairB-277" value="235" style="rounded=0;whiteSpace=wrap;html=1;fillColor=#f5f5f5;fontColor=#333333;strokeColor=#666666;" parent="1" vertex="1">
          <mxGeometry x="220" y="3950" width="40" height="30" as="geometry" />
        </mxCell>
        <mxCell id="J4NICDW2dzj8mF2yairB-280" value="237" style="rounded=0;whiteSpace=wrap;html=1;fillColor=#f5f5f5;fontColor=#333333;strokeColor=#666666;" parent="1" vertex="1">
          <mxGeometry x="220" y="3980" width="40" height="30" as="geometry" />
        </mxCell>
        <mxCell id="J4NICDW2dzj8mF2yairB-282" value="239" style="rounded=0;whiteSpace=wrap;html=1;fillColor=#f5f5f5;fontColor=#333333;strokeColor=#666666;" parent="1" vertex="1">
          <mxGeometry x="220" y="4010" width="40" height="30" as="geometry" />
        </mxCell>
        <mxCell id="J4NICDW2dzj8mF2yairB-285" value="241" style="rounded=0;whiteSpace=wrap;html=1;fillColor=#f5f5f5;fontColor=#333333;strokeColor=#666666;" parent="1" vertex="1">
          <mxGeometry x="220" y="4040" width="40" height="30" as="geometry" />
        </mxCell>
        <mxCell id="J4NICDW2dzj8mF2yairB-286" value="243" style="rounded=0;whiteSpace=wrap;html=1;fillColor=#f5f5f5;fontColor=#333333;strokeColor=#666666;" parent="1" vertex="1">
          <mxGeometry x="220" y="4070" width="40" height="30" as="geometry" />
        </mxCell>
        <mxCell id="J4NICDW2dzj8mF2yairB-288" value="245" style="rounded=0;whiteSpace=wrap;html=1;fillColor=#f5f5f5;fontColor=#333333;strokeColor=#666666;" parent="1" vertex="1">
          <mxGeometry x="220" y="4100" width="40" height="30" as="geometry" />
        </mxCell>
        <mxCell id="J4NICDW2dzj8mF2yairB-289" value="247" style="rounded=0;whiteSpace=wrap;html=1;fillColor=#f5f5f5;fontColor=#333333;strokeColor=#666666;" parent="1" vertex="1">
          <mxGeometry x="220" y="4130" width="40" height="30" as="geometry" />
        </mxCell>
        <mxCell id="J4NICDW2dzj8mF2yairB-292" value="249" style="rounded=0;whiteSpace=wrap;html=1;fillColor=#f5f5f5;fontColor=#333333;strokeColor=#666666;" parent="1" vertex="1">
          <mxGeometry x="220" y="4160" width="40" height="30" as="geometry" />
        </mxCell>
        <mxCell id="J4NICDW2dzj8mF2yairB-294" value="251" style="rounded=0;whiteSpace=wrap;html=1;fillColor=#f5f5f5;fontColor=#333333;strokeColor=#666666;" parent="1" vertex="1">
          <mxGeometry x="220" y="4190" width="40" height="30" as="geometry" />
        </mxCell>
        <mxCell id="J4NICDW2dzj8mF2yairB-295" value="253" style="rounded=0;whiteSpace=wrap;html=1;fillColor=#f5f5f5;fontColor=#333333;strokeColor=#666666;" parent="1" vertex="1">
          <mxGeometry x="220" y="4220" width="40" height="30" as="geometry" />
        </mxCell>
        <mxCell id="J4NICDW2dzj8mF2yairB-298" value="255" style="rounded=0;whiteSpace=wrap;html=1;fillColor=#f5f5f5;fontColor=#333333;strokeColor=#666666;" parent="1" vertex="1">
          <mxGeometry x="220" y="4250" width="40" height="30" as="geometry" />
        </mxCell>
        <mxCell id="J4NICDW2dzj8mF2yairB-300" value="257" style="rounded=0;whiteSpace=wrap;html=1;fillColor=#f5f5f5;fontColor=#333333;strokeColor=#666666;" parent="1" vertex="1">
          <mxGeometry x="220" y="4280" width="40" height="30" as="geometry" />
        </mxCell>
        <mxCell id="J4NICDW2dzj8mF2yairB-303" value="259" style="rounded=0;whiteSpace=wrap;html=1;fillColor=#f5f5f5;fontColor=#333333;strokeColor=#666666;" parent="1" vertex="1">
          <mxGeometry x="220" y="4310" width="40" height="30" as="geometry" />
        </mxCell>
        <mxCell id="J4NICDW2dzj8mF2yairB-309" value="VIN9_15" style="rounded=0;whiteSpace=wrap;html=1;fillColor=#f8cecc;strokeColor=#b85450;" parent="1" vertex="1">
          <mxGeometry x="260" y="4190" width="150" height="30" as="geometry" />
        </mxCell>
        <mxCell id="J4NICDW2dzj8mF2yairB-310" value="VIN9_15" style="rounded=0;whiteSpace=wrap;html=1;fillColor=#f8cecc;strokeColor=#b85450;" parent="1" vertex="1">
          <mxGeometry x="260" y="4220" width="150" height="30" as="geometry" />
        </mxCell>
        <mxCell id="J4NICDW2dzj8mF2yairB-311" value="VIN9_15" style="rounded=0;whiteSpace=wrap;html=1;fillColor=#f8cecc;strokeColor=#b85450;" parent="1" vertex="1">
          <mxGeometry x="260" y="4250" width="150" height="30" as="geometry" />
        </mxCell>
        <mxCell id="J4NICDW2dzj8mF2yairB-312" value="VIN9_15" style="rounded=0;whiteSpace=wrap;html=1;fillColor=#f8cecc;strokeColor=#b85450;" parent="1" vertex="1">
          <mxGeometry x="260" y="4280" width="150" height="30" as="geometry" />
        </mxCell>
        <mxCell id="J4NICDW2dzj8mF2yairB-313" value="VIN9_15" style="rounded=0;whiteSpace=wrap;html=1;fillColor=#f8cecc;strokeColor=#b85450;" parent="1" vertex="1">
          <mxGeometry x="260" y="4310" width="150" height="30" as="geometry" />
        </mxCell>
        <mxCell id="J4NICDW2dzj8mF2yairB-314" value="65" style="rounded=0;whiteSpace=wrap;html=1;fillColor=#f5f5f5;fontColor=#333333;strokeColor=#666666;" parent="1" vertex="1">
          <mxGeometry x="220" y="1340" width="40" height="30" as="geometry" />
        </mxCell>
        <mxCell id="J4NICDW2dzj8mF2yairB-316" value="Back Side" style="rounded=0;whiteSpace=wrap;html=1;fillColor=#f5f5f5;fontColor=#333333;strokeColor=#666666;fontStyle=1" parent="1" vertex="1">
          <mxGeometry x="460" y="320" width="190" height="30" as="geometry" />
        </mxCell>
        <mxCell id="J4NICDW2dzj8mF2yairB-317" value="Pin" style="rounded=0;whiteSpace=wrap;html=1;fillColor=#f5f5f5;fontColor=#333333;strokeColor=#666666;fontStyle=1" parent="1" vertex="1">
          <mxGeometry x="610" y="350" width="40" height="30" as="geometry" />
        </mxCell>
        <mxCell id="J4NICDW2dzj8mF2yairB-318" value="Signal" style="rounded=0;whiteSpace=wrap;html=1;fillColor=#f5f5f5;fontColor=#333333;strokeColor=#666666;fontStyle=1" parent="1" vertex="1">
          <mxGeometry x="460" y="350" width="150" height="30" as="geometry" />
        </mxCell>
        <mxCell id="J4NICDW2dzj8mF2yairB-323" value="2" style="rounded=0;whiteSpace=wrap;html=1;fillColor=#f5f5f5;fontColor=#333333;strokeColor=#666666;" parent="1" vertex="1">
          <mxGeometry x="610" y="380" width="40" height="30" as="geometry" />
        </mxCell>
        <mxCell id="J4NICDW2dzj8mF2yairB-324" value="4" style="rounded=0;whiteSpace=wrap;html=1;fillColor=#f5f5f5;fontColor=#333333;strokeColor=#666666;" parent="1" vertex="1">
          <mxGeometry x="610" y="410" width="40" height="30" as="geometry" />
        </mxCell>
        <mxCell id="J4NICDW2dzj8mF2yairB-325" value="6" style="rounded=0;whiteSpace=wrap;html=1;fillColor=#f5f5f5;fontColor=#333333;strokeColor=#666666;" parent="1" vertex="1">
          <mxGeometry x="610" y="440" width="40" height="30" as="geometry" />
        </mxCell>
        <mxCell id="J4NICDW2dzj8mF2yairB-329" value="8" style="rounded=0;whiteSpace=wrap;html=1;fillColor=#f5f5f5;fontColor=#333333;strokeColor=#666666;" parent="1" vertex="1">
          <mxGeometry x="610" y="470" width="40" height="30" as="geometry" />
        </mxCell>
        <mxCell id="J4NICDW2dzj8mF2yairB-330" value="10" style="rounded=0;whiteSpace=wrap;html=1;fillColor=#f5f5f5;fontColor=#333333;strokeColor=#666666;" parent="1" vertex="1">
          <mxGeometry x="610" y="500" width="40" height="30" as="geometry" />
        </mxCell>
        <mxCell id="J4NICDW2dzj8mF2yairB-331" value="12" style="rounded=0;whiteSpace=wrap;html=1;fillColor=#f5f5f5;fontColor=#333333;strokeColor=#666666;" parent="1" vertex="1">
          <mxGeometry x="610" y="530" width="40" height="30" as="geometry" />
        </mxCell>
        <mxCell id="J4NICDW2dzj8mF2yairB-332" value="RTD9P" style="rounded=0;whiteSpace=wrap;html=1;fillColor=#b0e3e6;strokeColor=#0e8088;" parent="1" vertex="1">
          <mxGeometry x="460" y="530" width="150" height="30" as="geometry" />
        </mxCell>
        <mxCell id="J4NICDW2dzj8mF2yairB-333" value="RTD9N" style="rounded=0;whiteSpace=wrap;html=1;fillColor=#b0e3e6;strokeColor=#0e8088;" parent="1" vertex="1">
          <mxGeometry x="460" y="560" width="150" height="30" as="geometry" />
        </mxCell>
        <mxCell id="J4NICDW2dzj8mF2yairB-334" value="14" style="rounded=0;whiteSpace=wrap;html=1;fillColor=#f5f5f5;fontColor=#333333;strokeColor=#666666;" parent="1" vertex="1">
          <mxGeometry x="610" y="560" width="40" height="30" as="geometry" />
        </mxCell>
        <mxCell id="J4NICDW2dzj8mF2yairB-335" value="16" style="rounded=0;whiteSpace=wrap;html=1;fillColor=#f5f5f5;fontColor=#333333;strokeColor=#666666;" parent="1" vertex="1">
          <mxGeometry x="610" y="590" width="40" height="30" as="geometry" />
        </mxCell>
        <mxCell id="J4NICDW2dzj8mF2yairB-336" value="GND" style="rounded=0;whiteSpace=wrap;html=1;fillColor=#bac8d3;strokeColor=#23445d;" parent="1" vertex="1">
          <mxGeometry x="460" y="590" width="150" height="30" as="geometry" />
        </mxCell>
        <mxCell id="J4NICDW2dzj8mF2yairB-337" value="18" style="rounded=0;whiteSpace=wrap;html=1;fillColor=#f5f5f5;fontColor=#333333;strokeColor=#666666;" parent="1" vertex="1">
          <mxGeometry x="610" y="620" width="40" height="30" as="geometry" />
        </mxCell>
        <mxCell id="J4NICDW2dzj8mF2yairB-338" value="RTD10P" style="rounded=0;whiteSpace=wrap;html=1;fillColor=#b0e3e6;strokeColor=#0e8088;" parent="1" vertex="1">
          <mxGeometry x="460" y="620" width="150" height="30" as="geometry" />
        </mxCell>
        <mxCell id="J4NICDW2dzj8mF2yairB-339" value="RTD10N" style="rounded=0;whiteSpace=wrap;html=1;fillColor=#b0e3e6;strokeColor=#0e8088;" parent="1" vertex="1">
          <mxGeometry x="460" y="650" width="150" height="30" as="geometry" />
        </mxCell>
        <mxCell id="J4NICDW2dzj8mF2yairB-340" value="20" style="rounded=0;whiteSpace=wrap;html=1;fillColor=#f5f5f5;fontColor=#333333;strokeColor=#666666;" parent="1" vertex="1">
          <mxGeometry x="610" y="650" width="40" height="30" as="geometry" />
        </mxCell>
        <mxCell id="J4NICDW2dzj8mF2yairB-341" value="22" style="rounded=0;whiteSpace=wrap;html=1;fillColor=#f5f5f5;fontColor=#333333;strokeColor=#666666;" parent="1" vertex="1">
          <mxGeometry x="610" y="680" width="40" height="30" as="geometry" />
        </mxCell>
        <mxCell id="J4NICDW2dzj8mF2yairB-342" value="GND" style="rounded=0;whiteSpace=wrap;html=1;fillColor=#bac8d3;strokeColor=#23445d;" parent="1" vertex="1">
          <mxGeometry x="460" y="680" width="150" height="30" as="geometry" />
        </mxCell>
        <mxCell id="J4NICDW2dzj8mF2yairB-343" value="24" style="rounded=0;whiteSpace=wrap;html=1;fillColor=#f5f5f5;fontColor=#333333;strokeColor=#666666;" parent="1" vertex="1">
          <mxGeometry x="610" y="710" width="40" height="30" as="geometry" />
        </mxCell>
        <mxCell id="J4NICDW2dzj8mF2yairB-344" value="RTD11P" style="rounded=0;whiteSpace=wrap;html=1;fillColor=#b0e3e6;strokeColor=#0e8088;" parent="1" vertex="1">
          <mxGeometry x="460" y="710" width="150" height="30" as="geometry" />
        </mxCell>
        <mxCell id="J4NICDW2dzj8mF2yairB-345" value="RTD11N" style="rounded=0;whiteSpace=wrap;html=1;fillColor=#b0e3e6;strokeColor=#0e8088;" parent="1" vertex="1">
          <mxGeometry x="460" y="740" width="150" height="30" as="geometry" />
        </mxCell>
        <mxCell id="J4NICDW2dzj8mF2yairB-346" value="26" style="rounded=0;whiteSpace=wrap;html=1;fillColor=#f5f5f5;fontColor=#333333;strokeColor=#666666;" parent="1" vertex="1">
          <mxGeometry x="610" y="740" width="40" height="30" as="geometry" />
        </mxCell>
        <mxCell id="J4NICDW2dzj8mF2yairB-347" value="28" style="rounded=0;whiteSpace=wrap;html=1;fillColor=#f5f5f5;fontColor=#333333;strokeColor=#666666;" parent="1" vertex="1">
          <mxGeometry x="610" y="770" width="40" height="30" as="geometry" />
        </mxCell>
        <mxCell id="J4NICDW2dzj8mF2yairB-348" value="GND" style="rounded=0;whiteSpace=wrap;html=1;fillColor=#bac8d3;strokeColor=#23445d;" parent="1" vertex="1">
          <mxGeometry x="460" y="770" width="150" height="30" as="geometry" />
        </mxCell>
        <mxCell id="J4NICDW2dzj8mF2yairB-349" value="30" style="rounded=0;whiteSpace=wrap;html=1;fillColor=#f5f5f5;fontColor=#333333;strokeColor=#666666;" parent="1" vertex="1">
          <mxGeometry x="610" y="800" width="40" height="30" as="geometry" />
        </mxCell>
        <mxCell id="J4NICDW2dzj8mF2yairB-350" value="RTD12P" style="rounded=0;whiteSpace=wrap;html=1;fillColor=#b0e3e6;strokeColor=#0e8088;" parent="1" vertex="1">
          <mxGeometry x="460" y="800" width="150" height="30" as="geometry" />
        </mxCell>
        <mxCell id="J4NICDW2dzj8mF2yairB-351" value="RTD12N" style="rounded=0;whiteSpace=wrap;html=1;fillColor=#b0e3e6;strokeColor=#0e8088;" parent="1" vertex="1">
          <mxGeometry x="460" y="830" width="150" height="30" as="geometry" />
        </mxCell>
        <mxCell id="J4NICDW2dzj8mF2yairB-352" value="32" style="rounded=0;whiteSpace=wrap;html=1;fillColor=#f5f5f5;fontColor=#333333;strokeColor=#666666;" parent="1" vertex="1">
          <mxGeometry x="610" y="830" width="40" height="30" as="geometry" />
        </mxCell>
        <mxCell id="J4NICDW2dzj8mF2yairB-353" value="34" style="rounded=0;whiteSpace=wrap;html=1;fillColor=#f5f5f5;fontColor=#333333;strokeColor=#666666;" parent="1" vertex="1">
          <mxGeometry x="610" y="860" width="40" height="30" as="geometry" />
        </mxCell>
        <mxCell id="J4NICDW2dzj8mF2yairB-354" value="GND" style="rounded=0;whiteSpace=wrap;html=1;fillColor=#bac8d3;strokeColor=#23445d;" parent="1" vertex="1">
          <mxGeometry x="460" y="860" width="150" height="30" as="geometry" />
        </mxCell>
        <mxCell id="J4NICDW2dzj8mF2yairB-355" value="36" style="rounded=0;whiteSpace=wrap;html=1;fillColor=#f5f5f5;fontColor=#333333;strokeColor=#666666;" parent="1" vertex="1">
          <mxGeometry x="610" y="890" width="40" height="30" as="geometry" />
        </mxCell>
        <mxCell id="J4NICDW2dzj8mF2yairB-356" value="RTD13P" style="rounded=0;whiteSpace=wrap;html=1;fillColor=#b0e3e6;strokeColor=#0e8088;" parent="1" vertex="1">
          <mxGeometry x="460" y="890" width="150" height="30" as="geometry" />
        </mxCell>
        <mxCell id="J4NICDW2dzj8mF2yairB-357" value="RTD13N" style="rounded=0;whiteSpace=wrap;html=1;fillColor=#b0e3e6;strokeColor=#0e8088;" parent="1" vertex="1">
          <mxGeometry x="460" y="920" width="150" height="30" as="geometry" />
        </mxCell>
        <mxCell id="J4NICDW2dzj8mF2yairB-358" value="38" style="rounded=0;whiteSpace=wrap;html=1;fillColor=#f5f5f5;fontColor=#333333;strokeColor=#666666;" parent="1" vertex="1">
          <mxGeometry x="610" y="920" width="40" height="30" as="geometry" />
        </mxCell>
        <mxCell id="J4NICDW2dzj8mF2yairB-359" value="40" style="rounded=0;whiteSpace=wrap;html=1;fillColor=#f5f5f5;fontColor=#333333;strokeColor=#666666;" parent="1" vertex="1">
          <mxGeometry x="610" y="950" width="40" height="30" as="geometry" />
        </mxCell>
        <mxCell id="J4NICDW2dzj8mF2yairB-360" value="GND" style="rounded=0;whiteSpace=wrap;html=1;fillColor=#bac8d3;strokeColor=#23445d;" parent="1" vertex="1">
          <mxGeometry x="460" y="950" width="150" height="30" as="geometry" />
        </mxCell>
        <mxCell id="J4NICDW2dzj8mF2yairB-361" value="42" style="rounded=0;whiteSpace=wrap;html=1;fillColor=#f5f5f5;fontColor=#333333;strokeColor=#666666;" parent="1" vertex="1">
          <mxGeometry x="610" y="980" width="40" height="30" as="geometry" />
        </mxCell>
        <mxCell id="J4NICDW2dzj8mF2yairB-362" value="RTD14P" style="rounded=0;whiteSpace=wrap;html=1;fillColor=#b0e3e6;strokeColor=#0e8088;" parent="1" vertex="1">
          <mxGeometry x="460" y="980" width="150" height="30" as="geometry" />
        </mxCell>
        <mxCell id="J4NICDW2dzj8mF2yairB-363" value="RTD14N" style="rounded=0;whiteSpace=wrap;html=1;fillColor=#b0e3e6;strokeColor=#0e8088;" parent="1" vertex="1">
          <mxGeometry x="460" y="1010" width="150" height="30" as="geometry" />
        </mxCell>
        <mxCell id="J4NICDW2dzj8mF2yairB-364" value="44" style="rounded=0;whiteSpace=wrap;html=1;fillColor=#f5f5f5;fontColor=#333333;strokeColor=#666666;" parent="1" vertex="1">
          <mxGeometry x="610" y="1010" width="40" height="30" as="geometry" />
        </mxCell>
        <mxCell id="J4NICDW2dzj8mF2yairB-365" value="46" style="rounded=0;whiteSpace=wrap;html=1;fillColor=#f5f5f5;fontColor=#333333;strokeColor=#666666;" parent="1" vertex="1">
          <mxGeometry x="610" y="1040" width="40" height="30" as="geometry" />
        </mxCell>
        <mxCell id="J4NICDW2dzj8mF2yairB-366" value="GND" style="rounded=0;whiteSpace=wrap;html=1;fillColor=#bac8d3;strokeColor=#23445d;" parent="1" vertex="1">
          <mxGeometry x="460" y="1040" width="150" height="30" as="geometry" />
        </mxCell>
        <mxCell id="J4NICDW2dzj8mF2yairB-367" value="48" style="rounded=0;whiteSpace=wrap;html=1;fillColor=#f5f5f5;fontColor=#333333;strokeColor=#666666;" parent="1" vertex="1">
          <mxGeometry x="610" y="1070" width="40" height="30" as="geometry" />
        </mxCell>
        <mxCell id="J4NICDW2dzj8mF2yairB-368" value="RTD15P" style="rounded=0;whiteSpace=wrap;html=1;fillColor=#b0e3e6;strokeColor=#0e8088;" parent="1" vertex="1">
          <mxGeometry x="460" y="1070" width="150" height="30" as="geometry" />
        </mxCell>
        <mxCell id="J4NICDW2dzj8mF2yairB-369" value="RTD15N" style="rounded=0;whiteSpace=wrap;html=1;fillColor=#b0e3e6;strokeColor=#0e8088;" parent="1" vertex="1">
          <mxGeometry x="460" y="1100" width="150" height="30" as="geometry" />
        </mxCell>
        <mxCell id="J4NICDW2dzj8mF2yairB-370" value="50" style="rounded=0;whiteSpace=wrap;html=1;fillColor=#f5f5f5;fontColor=#333333;strokeColor=#666666;" parent="1" vertex="1">
          <mxGeometry x="610" y="1100" width="40" height="30" as="geometry" />
        </mxCell>
        <mxCell id="J4NICDW2dzj8mF2yairB-371" value="52" style="rounded=0;whiteSpace=wrap;html=1;fillColor=#f5f5f5;fontColor=#333333;strokeColor=#666666;" parent="1" vertex="1">
          <mxGeometry x="610" y="1130" width="40" height="30" as="geometry" />
        </mxCell>
        <mxCell id="J4NICDW2dzj8mF2yairB-372" value="GND" style="rounded=0;whiteSpace=wrap;html=1;fillColor=#bac8d3;strokeColor=#23445d;" parent="1" vertex="1">
          <mxGeometry x="460" y="1130" width="150" height="30" as="geometry" />
        </mxCell>
        <mxCell id="J4NICDW2dzj8mF2yairB-373" value="54" style="rounded=0;whiteSpace=wrap;html=1;fillColor=#f5f5f5;fontColor=#333333;strokeColor=#666666;" parent="1" vertex="1">
          <mxGeometry x="610" y="1160" width="40" height="30" as="geometry" />
        </mxCell>
        <mxCell id="J4NICDW2dzj8mF2yairB-374" value="RTD16P" style="rounded=0;whiteSpace=wrap;html=1;fillColor=#b0e3e6;strokeColor=#0e8088;" parent="1" vertex="1">
          <mxGeometry x="460" y="1160" width="150" height="30" as="geometry" />
        </mxCell>
        <mxCell id="J4NICDW2dzj8mF2yairB-375" value="RTD16N" style="rounded=0;whiteSpace=wrap;html=1;fillColor=#b0e3e6;strokeColor=#0e8088;" parent="1" vertex="1">
          <mxGeometry x="460" y="1190" width="150" height="30" as="geometry" />
        </mxCell>
        <mxCell id="J4NICDW2dzj8mF2yairB-376" value="56" style="rounded=0;whiteSpace=wrap;html=1;fillColor=#f5f5f5;fontColor=#333333;strokeColor=#666666;" parent="1" vertex="1">
          <mxGeometry x="610" y="1190" width="40" height="30" as="geometry" />
        </mxCell>
        <mxCell id="J4NICDW2dzj8mF2yairB-377" value="58" style="rounded=0;whiteSpace=wrap;html=1;fillColor=#f5f5f5;fontColor=#333333;strokeColor=#666666;" parent="1" vertex="1">
          <mxGeometry x="610" y="1220" width="40" height="30" as="geometry" />
        </mxCell>
        <mxCell id="J4NICDW2dzj8mF2yairB-378" value="GND" style="rounded=0;whiteSpace=wrap;html=1;fillColor=#bac8d3;strokeColor=#23445d;" parent="1" vertex="1">
          <mxGeometry x="460" y="1220" width="150" height="30" as="geometry" />
        </mxCell>
        <mxCell id="J4NICDW2dzj8mF2yairB-379" value="60" style="rounded=0;whiteSpace=wrap;html=1;fillColor=#f5f5f5;fontColor=#333333;strokeColor=#666666;" parent="1" vertex="1">
          <mxGeometry x="610" y="1250" width="40" height="30" as="geometry" />
        </mxCell>
        <mxCell id="J4NICDW2dzj8mF2yairB-380" value="62" style="rounded=0;whiteSpace=wrap;html=1;fillColor=#f5f5f5;fontColor=#333333;strokeColor=#666666;" parent="1" vertex="1">
          <mxGeometry x="610" y="1280" width="40" height="30" as="geometry" />
        </mxCell>
        <mxCell id="J4NICDW2dzj8mF2yairB-383" value="64" style="rounded=0;whiteSpace=wrap;html=1;fillColor=#f5f5f5;fontColor=#333333;strokeColor=#666666;" parent="1" vertex="1">
          <mxGeometry x="610" y="1310" width="40" height="30" as="geometry" />
        </mxCell>
        <mxCell id="J4NICDW2dzj8mF2yairB-385" value="68" style="rounded=0;whiteSpace=wrap;html=1;fillColor=#f5f5f5;fontColor=#333333;strokeColor=#666666;" parent="1" vertex="1">
          <mxGeometry x="610" y="1370" width="40" height="30" as="geometry" />
        </mxCell>
        <mxCell id="J4NICDW2dzj8mF2yairB-386" value="70" style="rounded=0;whiteSpace=wrap;html=1;fillColor=#f5f5f5;fontColor=#333333;strokeColor=#666666;" parent="1" vertex="1">
          <mxGeometry x="610" y="1400" width="40" height="30" as="geometry" />
        </mxCell>
        <mxCell id="J4NICDW2dzj8mF2yairB-389" value="72" style="rounded=0;whiteSpace=wrap;html=1;fillColor=#f5f5f5;fontColor=#333333;strokeColor=#666666;" parent="1" vertex="1">
          <mxGeometry x="610" y="1430" width="40" height="30" as="geometry" />
        </mxCell>
        <mxCell id="J4NICDW2dzj8mF2yairB-391" value="74" style="rounded=0;whiteSpace=wrap;html=1;fillColor=#f5f5f5;fontColor=#333333;strokeColor=#666666;" parent="1" vertex="1">
          <mxGeometry x="610" y="1460" width="40" height="30" as="geometry" />
        </mxCell>
        <mxCell id="J4NICDW2dzj8mF2yairB-392" value="76" style="rounded=0;whiteSpace=wrap;html=1;fillColor=#f5f5f5;fontColor=#333333;strokeColor=#666666;" parent="1" vertex="1">
          <mxGeometry x="610" y="1490" width="40" height="30" as="geometry" />
        </mxCell>
        <mxCell id="J4NICDW2dzj8mF2yairB-395" value="78" style="rounded=0;whiteSpace=wrap;html=1;fillColor=#f5f5f5;fontColor=#333333;strokeColor=#666666;" parent="1" vertex="1">
          <mxGeometry x="610" y="1520" width="40" height="30" as="geometry" />
        </mxCell>
        <mxCell id="J4NICDW2dzj8mF2yairB-397" value="80" style="rounded=0;whiteSpace=wrap;html=1;fillColor=#f5f5f5;fontColor=#333333;strokeColor=#666666;" parent="1" vertex="1">
          <mxGeometry x="610" y="1550" width="40" height="30" as="geometry" />
        </mxCell>
        <mxCell id="J4NICDW2dzj8mF2yairB-398" value="82" style="rounded=0;whiteSpace=wrap;html=1;fillColor=#f5f5f5;fontColor=#333333;strokeColor=#666666;" parent="1" vertex="1">
          <mxGeometry x="610" y="1580" width="40" height="30" as="geometry" />
        </mxCell>
        <mxCell id="J4NICDW2dzj8mF2yairB-401" value="84" style="rounded=0;whiteSpace=wrap;html=1;fillColor=#f5f5f5;fontColor=#333333;strokeColor=#666666;" parent="1" vertex="1">
          <mxGeometry x="610" y="1610" width="40" height="30" as="geometry" />
        </mxCell>
        <mxCell id="J4NICDW2dzj8mF2yairB-403" value="86" style="rounded=0;whiteSpace=wrap;html=1;fillColor=#f5f5f5;fontColor=#333333;strokeColor=#666666;" parent="1" vertex="1">
          <mxGeometry x="610" y="1640" width="40" height="30" as="geometry" />
        </mxCell>
        <mxCell id="J4NICDW2dzj8mF2yairB-404" value="88" style="rounded=0;whiteSpace=wrap;html=1;fillColor=#f5f5f5;fontColor=#333333;strokeColor=#666666;" parent="1" vertex="1">
          <mxGeometry x="610" y="1670" width="40" height="30" as="geometry" />
        </mxCell>
        <mxCell id="J4NICDW2dzj8mF2yairB-407" value="90" style="rounded=0;whiteSpace=wrap;html=1;fillColor=#f5f5f5;fontColor=#333333;strokeColor=#666666;" parent="1" vertex="1">
          <mxGeometry x="610" y="1700" width="40" height="30" as="geometry" />
        </mxCell>
        <mxCell id="J4NICDW2dzj8mF2yairB-409" value="92" style="rounded=0;whiteSpace=wrap;html=1;fillColor=#f5f5f5;fontColor=#333333;strokeColor=#666666;" parent="1" vertex="1">
          <mxGeometry x="610" y="1730" width="40" height="30" as="geometry" />
        </mxCell>
        <mxCell id="J4NICDW2dzj8mF2yairB-410" value="94" style="rounded=0;whiteSpace=wrap;html=1;fillColor=#f5f5f5;fontColor=#333333;strokeColor=#666666;" parent="1" vertex="1">
          <mxGeometry x="610" y="1760" width="40" height="30" as="geometry" />
        </mxCell>
        <mxCell id="J4NICDW2dzj8mF2yairB-413" value="96" style="rounded=0;whiteSpace=wrap;html=1;fillColor=#f5f5f5;fontColor=#333333;strokeColor=#666666;" parent="1" vertex="1">
          <mxGeometry x="610" y="1790" width="40" height="30" as="geometry" />
        </mxCell>
        <mxCell id="J4NICDW2dzj8mF2yairB-415" value="98" style="rounded=0;whiteSpace=wrap;html=1;fillColor=#f5f5f5;fontColor=#333333;strokeColor=#666666;" parent="1" vertex="1">
          <mxGeometry x="610" y="1820" width="40" height="30" as="geometry" />
        </mxCell>
        <mxCell id="J4NICDW2dzj8mF2yairB-416" value="100" style="rounded=0;whiteSpace=wrap;html=1;fillColor=#f5f5f5;fontColor=#333333;strokeColor=#666666;" parent="1" vertex="1">
          <mxGeometry x="610" y="1850" width="40" height="30" as="geometry" />
        </mxCell>
        <mxCell id="J4NICDW2dzj8mF2yairB-419" value="102" style="rounded=0;whiteSpace=wrap;html=1;fillColor=#f5f5f5;fontColor=#333333;strokeColor=#666666;" parent="1" vertex="1">
          <mxGeometry x="610" y="1880" width="40" height="30" as="geometry" />
        </mxCell>
        <mxCell id="J4NICDW2dzj8mF2yairB-421" value="104" style="rounded=0;whiteSpace=wrap;html=1;fillColor=#f5f5f5;fontColor=#333333;strokeColor=#666666;" parent="1" vertex="1">
          <mxGeometry x="610" y="1910" width="40" height="30" as="geometry" />
        </mxCell>
        <mxCell id="J4NICDW2dzj8mF2yairB-422" value="106" style="rounded=0;whiteSpace=wrap;html=1;fillColor=#f5f5f5;fontColor=#333333;strokeColor=#666666;" parent="1" vertex="1">
          <mxGeometry x="610" y="1940" width="40" height="30" as="geometry" />
        </mxCell>
        <mxCell id="J4NICDW2dzj8mF2yairB-425" value="108" style="rounded=0;whiteSpace=wrap;html=1;fillColor=#f5f5f5;fontColor=#333333;strokeColor=#666666;" parent="1" vertex="1">
          <mxGeometry x="610" y="1970" width="40" height="30" as="geometry" />
        </mxCell>
        <mxCell id="J4NICDW2dzj8mF2yairB-427" value="110" style="rounded=0;whiteSpace=wrap;html=1;fillColor=#f5f5f5;fontColor=#333333;strokeColor=#666666;" parent="1" vertex="1">
          <mxGeometry x="610" y="2000" width="40" height="30" as="geometry" />
        </mxCell>
        <mxCell id="J4NICDW2dzj8mF2yairB-428" value="112" style="rounded=0;whiteSpace=wrap;html=1;fillColor=#f5f5f5;fontColor=#333333;strokeColor=#666666;" parent="1" vertex="1">
          <mxGeometry x="610" y="2030" width="40" height="30" as="geometry" />
        </mxCell>
        <mxCell id="J4NICDW2dzj8mF2yairB-429" value="RTD24P" style="rounded=0;whiteSpace=wrap;html=1;fillColor=#b0e3e6;strokeColor=#0e8088;" parent="1" vertex="1">
          <mxGeometry x="460" y="1880" width="150" height="30" as="geometry" />
        </mxCell>
        <mxCell id="J4NICDW2dzj8mF2yairB-430" value="RTD24N" style="rounded=0;whiteSpace=wrap;html=1;fillColor=#b0e3e6;strokeColor=#0e8088;" parent="1" vertex="1">
          <mxGeometry x="460" y="1910" width="150" height="30" as="geometry" />
        </mxCell>
        <mxCell id="J4NICDW2dzj8mF2yairB-431" value="114" style="rounded=0;whiteSpace=wrap;html=1;fillColor=#f5f5f5;fontColor=#333333;strokeColor=#666666;" parent="1" vertex="1">
          <mxGeometry x="610" y="2060" width="40" height="30" as="geometry" />
        </mxCell>
        <mxCell id="J4NICDW2dzj8mF2yairB-432" value="GND" style="rounded=0;whiteSpace=wrap;html=1;fillColor=#bac8d3;strokeColor=#23445d;" parent="1" vertex="1">
          <mxGeometry x="460" y="1940" width="150" height="30" as="geometry" />
        </mxCell>
        <mxCell id="J4NICDW2dzj8mF2yairB-433" value="116" style="rounded=0;whiteSpace=wrap;html=1;fillColor=#f5f5f5;fontColor=#333333;strokeColor=#666666;" parent="1" vertex="1">
          <mxGeometry x="610" y="2090" width="40" height="30" as="geometry" />
        </mxCell>
        <mxCell id="J4NICDW2dzj8mF2yairB-434" value="RD&lt;span style=&quot;background-color: transparent; color: light-dark(rgb(0, 0, 0), rgb(255, 255, 255));&quot;&gt;25P&lt;/span&gt;" style="rounded=0;whiteSpace=wrap;html=1;fillColor=#e1d5e7;strokeColor=#9673a6;" parent="1" vertex="1">
          <mxGeometry x="460" y="1970" width="150" height="30" as="geometry" />
        </mxCell>
        <mxCell id="J4NICDW2dzj8mF2yairB-435" value="RD&lt;span style=&quot;background-color: transparent; color: light-dark(rgb(0, 0, 0), rgb(255, 255, 255));&quot;&gt;25N&lt;/span&gt;" style="rounded=0;whiteSpace=wrap;html=1;fillColor=#e1d5e7;strokeColor=#9673a6;" parent="1" vertex="1">
          <mxGeometry x="460" y="2000" width="150" height="30" as="geometry" />
        </mxCell>
        <mxCell id="J4NICDW2dzj8mF2yairB-436" value="118" style="rounded=0;whiteSpace=wrap;html=1;fillColor=#f5f5f5;fontColor=#333333;strokeColor=#666666;" parent="1" vertex="1">
          <mxGeometry x="610" y="2120" width="40" height="30" as="geometry" />
        </mxCell>
        <mxCell id="J4NICDW2dzj8mF2yairB-437" value="120" style="rounded=0;whiteSpace=wrap;html=1;fillColor=#f5f5f5;fontColor=#333333;strokeColor=#666666;" parent="1" vertex="1">
          <mxGeometry x="610" y="2150" width="40" height="30" as="geometry" />
        </mxCell>
        <mxCell id="J4NICDW2dzj8mF2yairB-438" value="GND" style="rounded=0;whiteSpace=wrap;html=1;fillColor=#bac8d3;strokeColor=#23445d;" parent="1" vertex="1">
          <mxGeometry x="460" y="2030" width="150" height="30" as="geometry" />
        </mxCell>
        <mxCell id="J4NICDW2dzj8mF2yairB-439" value="122" style="rounded=0;whiteSpace=wrap;html=1;fillColor=#f5f5f5;fontColor=#333333;strokeColor=#666666;" parent="1" vertex="1">
          <mxGeometry x="610" y="2180" width="40" height="30" as="geometry" />
        </mxCell>
        <mxCell id="J4NICDW2dzj8mF2yairB-440" value="RTD26P" style="rounded=0;whiteSpace=wrap;html=1;fillColor=#b0e3e6;strokeColor=#0e8088;" parent="1" vertex="1">
          <mxGeometry x="460" y="2060" width="150" height="30" as="geometry" />
        </mxCell>
        <mxCell id="J4NICDW2dzj8mF2yairB-441" value="RTD26N" style="rounded=0;whiteSpace=wrap;html=1;fillColor=#b0e3e6;strokeColor=#0e8088;" parent="1" vertex="1">
          <mxGeometry x="460" y="2090" width="150" height="30" as="geometry" />
        </mxCell>
        <mxCell id="J4NICDW2dzj8mF2yairB-442" value="124" style="rounded=0;whiteSpace=wrap;html=1;fillColor=#f5f5f5;fontColor=#333333;strokeColor=#666666;" parent="1" vertex="1">
          <mxGeometry x="610" y="2210" width="40" height="30" as="geometry" />
        </mxCell>
        <mxCell id="J4NICDW2dzj8mF2yairB-443" value="126" style="rounded=0;whiteSpace=wrap;html=1;fillColor=#f5f5f5;fontColor=#333333;strokeColor=#666666;" parent="1" vertex="1">
          <mxGeometry x="610" y="2240" width="40" height="30" as="geometry" />
        </mxCell>
        <mxCell id="J4NICDW2dzj8mF2yairB-444" value="GND" style="rounded=0;whiteSpace=wrap;html=1;fillColor=#bac8d3;strokeColor=#23445d;" parent="1" vertex="1">
          <mxGeometry x="460" y="2120" width="150" height="30" as="geometry" />
        </mxCell>
        <mxCell id="J4NICDW2dzj8mF2yairB-445" value="128" style="rounded=0;whiteSpace=wrap;html=1;fillColor=#f5f5f5;fontColor=#333333;strokeColor=#666666;" parent="1" vertex="1">
          <mxGeometry x="610" y="2270" width="40" height="30" as="geometry" />
        </mxCell>
        <mxCell id="J4NICDW2dzj8mF2yairB-446" value="RD27P" style="rounded=0;whiteSpace=wrap;html=1;fillColor=#e1d5e7;strokeColor=#9673a6;" parent="1" vertex="1">
          <mxGeometry x="460" y="2150" width="150" height="30" as="geometry" />
        </mxCell>
        <mxCell id="J4NICDW2dzj8mF2yairB-447" value="RD27N" style="rounded=0;whiteSpace=wrap;html=1;fillColor=#e1d5e7;strokeColor=#9673a6;" parent="1" vertex="1">
          <mxGeometry x="460" y="2180" width="150" height="30" as="geometry" />
        </mxCell>
        <mxCell id="J4NICDW2dzj8mF2yairB-448" value="130" style="rounded=0;whiteSpace=wrap;html=1;fillColor=#f5f5f5;fontColor=#333333;strokeColor=#666666;" parent="1" vertex="1">
          <mxGeometry x="610" y="2300" width="40" height="30" as="geometry" />
        </mxCell>
        <mxCell id="J4NICDW2dzj8mF2yairB-449" value="132" style="rounded=0;whiteSpace=wrap;html=1;fillColor=#f5f5f5;fontColor=#333333;strokeColor=#666666;" parent="1" vertex="1">
          <mxGeometry x="610" y="2330" width="40" height="30" as="geometry" />
        </mxCell>
        <mxCell id="J4NICDW2dzj8mF2yairB-450" value="GND" style="rounded=0;whiteSpace=wrap;html=1;fillColor=#bac8d3;strokeColor=#23445d;" parent="1" vertex="1">
          <mxGeometry x="460" y="2210" width="150" height="30" as="geometry" />
        </mxCell>
        <mxCell id="J4NICDW2dzj8mF2yairB-451" value="134" style="rounded=0;whiteSpace=wrap;html=1;fillColor=#f5f5f5;fontColor=#333333;strokeColor=#666666;" parent="1" vertex="1">
          <mxGeometry x="610" y="2360" width="40" height="30" as="geometry" />
        </mxCell>
        <mxCell id="J4NICDW2dzj8mF2yairB-452" value="RTD28P" style="rounded=0;whiteSpace=wrap;html=1;fillColor=#b0e3e6;strokeColor=#0e8088;" parent="1" vertex="1">
          <mxGeometry x="460" y="2240" width="150" height="30" as="geometry" />
        </mxCell>
        <mxCell id="J4NICDW2dzj8mF2yairB-453" value="RTD28N" style="rounded=0;whiteSpace=wrap;html=1;fillColor=#b0e3e6;strokeColor=#0e8088;" parent="1" vertex="1">
          <mxGeometry x="460" y="2270" width="150" height="30" as="geometry" />
        </mxCell>
        <mxCell id="J4NICDW2dzj8mF2yairB-454" value="136" style="rounded=0;whiteSpace=wrap;html=1;fillColor=#f5f5f5;fontColor=#333333;strokeColor=#666666;" parent="1" vertex="1">
          <mxGeometry x="610" y="2390" width="40" height="30" as="geometry" />
        </mxCell>
        <mxCell id="J4NICDW2dzj8mF2yairB-455" value="138" style="rounded=0;whiteSpace=wrap;html=1;fillColor=#f5f5f5;fontColor=#333333;strokeColor=#666666;" parent="1" vertex="1">
          <mxGeometry x="610" y="2420" width="40" height="30" as="geometry" />
        </mxCell>
        <mxCell id="J4NICDW2dzj8mF2yairB-456" value="GND" style="rounded=0;whiteSpace=wrap;html=1;fillColor=#bac8d3;strokeColor=#23445d;" parent="1" vertex="1">
          <mxGeometry x="460" y="2300" width="150" height="30" as="geometry" />
        </mxCell>
        <mxCell id="J4NICDW2dzj8mF2yairB-457" value="140" style="rounded=0;whiteSpace=wrap;html=1;fillColor=#f5f5f5;fontColor=#333333;strokeColor=#666666;" parent="1" vertex="1">
          <mxGeometry x="610" y="2450" width="40" height="30" as="geometry" />
        </mxCell>
        <mxCell id="J4NICDW2dzj8mF2yairB-458" value="RD29P" style="rounded=0;whiteSpace=wrap;html=1;fillColor=#e1d5e7;strokeColor=#9673a6;" parent="1" vertex="1">
          <mxGeometry x="460" y="2330" width="150" height="30" as="geometry" />
        </mxCell>
        <mxCell id="J4NICDW2dzj8mF2yairB-460" value="142" style="rounded=0;whiteSpace=wrap;html=1;fillColor=#f5f5f5;fontColor=#333333;strokeColor=#666666;" parent="1" vertex="1">
          <mxGeometry x="610" y="2480" width="40" height="30" as="geometry" />
        </mxCell>
        <mxCell id="J4NICDW2dzj8mF2yairB-461" value="144" style="rounded=0;whiteSpace=wrap;html=1;fillColor=#f5f5f5;fontColor=#333333;strokeColor=#666666;" parent="1" vertex="1">
          <mxGeometry x="610" y="2570" width="40" height="30" as="geometry" />
        </mxCell>
        <mxCell id="J4NICDW2dzj8mF2yairB-462" value="GND" style="rounded=0;whiteSpace=wrap;html=1;fillColor=#bac8d3;strokeColor=#23445d;" parent="1" vertex="1">
          <mxGeometry x="460" y="2660" width="150" height="30" as="geometry" />
        </mxCell>
        <mxCell id="J4NICDW2dzj8mF2yairB-463" value="146" style="rounded=0;whiteSpace=wrap;html=1;fillColor=#f5f5f5;fontColor=#333333;strokeColor=#666666;" parent="1" vertex="1">
          <mxGeometry x="610" y="2600" width="40" height="30" as="geometry" />
        </mxCell>
        <mxCell id="J4NICDW2dzj8mF2yairB-464" value="SE35" style="rounded=0;whiteSpace=wrap;html=1;fillColor=#fff2cc;strokeColor=#d6b656;" parent="1" vertex="1">
          <mxGeometry x="460" y="2690" width="150" height="30" as="geometry" />
        </mxCell>
        <mxCell id="J4NICDW2dzj8mF2yairB-465" value="SE36" style="rounded=0;whiteSpace=wrap;html=1;fillColor=#fff2cc;strokeColor=#d6b656;" parent="1" vertex="1">
          <mxGeometry x="460" y="2720" width="150" height="30" as="geometry" />
        </mxCell>
        <mxCell id="J4NICDW2dzj8mF2yairB-466" value="148" style="rounded=0;whiteSpace=wrap;html=1;fillColor=#f5f5f5;fontColor=#333333;strokeColor=#666666;" parent="1" vertex="1">
          <mxGeometry x="610" y="2630" width="40" height="30" as="geometry" />
        </mxCell>
        <mxCell id="J4NICDW2dzj8mF2yairB-467" value="150" style="rounded=0;whiteSpace=wrap;html=1;fillColor=#f5f5f5;fontColor=#333333;strokeColor=#666666;" parent="1" vertex="1">
          <mxGeometry x="610" y="2660" width="40" height="30" as="geometry" />
        </mxCell>
        <mxCell id="J4NICDW2dzj8mF2yairB-468" value="GND" style="rounded=0;whiteSpace=wrap;html=1;fillColor=#bac8d3;strokeColor=#23445d;" parent="1" vertex="1">
          <mxGeometry x="460" y="2750" width="150" height="30" as="geometry" />
        </mxCell>
        <mxCell id="J4NICDW2dzj8mF2yairB-469" value="152" style="rounded=0;whiteSpace=wrap;html=1;fillColor=#f5f5f5;fontColor=#333333;strokeColor=#666666;" parent="1" vertex="1">
          <mxGeometry x="610" y="2690" width="40" height="30" as="geometry" />
        </mxCell>
        <mxCell id="J4NICDW2dzj8mF2yairB-470" value="SE37" style="rounded=0;whiteSpace=wrap;html=1;fillColor=#fff2cc;strokeColor=#d6b656;" parent="1" vertex="1">
          <mxGeometry x="460" y="2780" width="150" height="30" as="geometry" />
        </mxCell>
        <mxCell id="J4NICDW2dzj8mF2yairB-471" value="SE38" style="rounded=0;whiteSpace=wrap;html=1;fillColor=#fff2cc;strokeColor=#d6b656;" parent="1" vertex="1">
          <mxGeometry x="460" y="2810" width="150" height="30" as="geometry" />
        </mxCell>
        <mxCell id="J4NICDW2dzj8mF2yairB-472" value="154" style="rounded=0;whiteSpace=wrap;html=1;fillColor=#f5f5f5;fontColor=#333333;strokeColor=#666666;" parent="1" vertex="1">
          <mxGeometry x="610" y="2720" width="40" height="30" as="geometry" />
        </mxCell>
        <mxCell id="J4NICDW2dzj8mF2yairB-473" value="156" style="rounded=0;whiteSpace=wrap;html=1;fillColor=#f5f5f5;fontColor=#333333;strokeColor=#666666;" parent="1" vertex="1">
          <mxGeometry x="610" y="2750" width="40" height="30" as="geometry" />
        </mxCell>
        <mxCell id="J4NICDW2dzj8mF2yairB-474" value="GND" style="rounded=0;whiteSpace=wrap;html=1;fillColor=#bac8d3;strokeColor=#23445d;" parent="1" vertex="1">
          <mxGeometry x="460" y="2840" width="150" height="30" as="geometry" />
        </mxCell>
        <mxCell id="J4NICDW2dzj8mF2yairB-475" value="158" style="rounded=0;whiteSpace=wrap;html=1;fillColor=#f5f5f5;fontColor=#333333;strokeColor=#666666;" parent="1" vertex="1">
          <mxGeometry x="610" y="2780" width="40" height="30" as="geometry" />
        </mxCell>
        <mxCell id="J4NICDW2dzj8mF2yairB-476" value="160" style="rounded=0;whiteSpace=wrap;html=1;fillColor=#f5f5f5;fontColor=#333333;strokeColor=#666666;" parent="1" vertex="1">
          <mxGeometry x="610" y="2810" width="40" height="30" as="geometry" />
        </mxCell>
        <mxCell id="J4NICDW2dzj8mF2yairB-477" value="Key" style="rounded=0;whiteSpace=wrap;html=1;fillColor=#f5f5f5;strokeColor=#666666;fontColor=#333333;fontStyle=2" parent="1" vertex="1">
          <mxGeometry x="460" y="2510" width="190" height="60" as="geometry" />
        </mxCell>
        <mxCell id="J4NICDW2dzj8mF2yairB-478" value="SE39" style="rounded=0;whiteSpace=wrap;html=1;fillColor=#fff2cc;strokeColor=#d6b656;" parent="1" vertex="1">
          <mxGeometry x="460" y="2870" width="150" height="30" as="geometry" />
        </mxCell>
        <mxCell id="J4NICDW2dzj8mF2yairB-479" value="SE40" style="rounded=0;whiteSpace=wrap;html=1;fillColor=#fff2cc;strokeColor=#d6b656;" parent="1" vertex="1">
          <mxGeometry x="460" y="2900" width="150" height="30" as="geometry" />
        </mxCell>
        <mxCell id="J4NICDW2dzj8mF2yairB-480" value="162" style="rounded=0;whiteSpace=wrap;html=1;fillColor=#f5f5f5;fontColor=#333333;strokeColor=#666666;" parent="1" vertex="1">
          <mxGeometry x="610" y="2840" width="40" height="30" as="geometry" />
        </mxCell>
        <mxCell id="J4NICDW2dzj8mF2yairB-481" value="GND" style="rounded=0;whiteSpace=wrap;html=1;fillColor=#bac8d3;strokeColor=#23445d;" parent="1" vertex="1">
          <mxGeometry x="460" y="2930" width="150" height="30" as="geometry" />
        </mxCell>
        <mxCell id="J4NICDW2dzj8mF2yairB-482" value="164" style="rounded=0;whiteSpace=wrap;html=1;fillColor=#f5f5f5;fontColor=#333333;strokeColor=#666666;" parent="1" vertex="1">
          <mxGeometry x="610" y="2870" width="40" height="30" as="geometry" />
        </mxCell>
        <mxCell id="J4NICDW2dzj8mF2yairB-483" value="SE41" style="rounded=0;whiteSpace=wrap;html=1;fillColor=#fff2cc;strokeColor=#d6b656;" parent="1" vertex="1">
          <mxGeometry x="460" y="2960" width="150" height="30" as="geometry" />
        </mxCell>
        <mxCell id="J4NICDW2dzj8mF2yairB-484" value="SE42" style="rounded=0;whiteSpace=wrap;html=1;fillColor=#fff2cc;strokeColor=#d6b656;" parent="1" vertex="1">
          <mxGeometry x="460" y="2990" width="150" height="30" as="geometry" />
        </mxCell>
        <mxCell id="J4NICDW2dzj8mF2yairB-485" value="166" style="rounded=0;whiteSpace=wrap;html=1;fillColor=#f5f5f5;fontColor=#333333;strokeColor=#666666;" parent="1" vertex="1">
          <mxGeometry x="610" y="2900" width="40" height="30" as="geometry" />
        </mxCell>
        <mxCell id="J4NICDW2dzj8mF2yairB-486" value="168" style="rounded=0;whiteSpace=wrap;html=1;fillColor=#f5f5f5;fontColor=#333333;strokeColor=#666666;" parent="1" vertex="1">
          <mxGeometry x="610" y="2930" width="40" height="30" as="geometry" />
        </mxCell>
        <mxCell id="J4NICDW2dzj8mF2yairB-487" value="GND" style="rounded=0;whiteSpace=wrap;html=1;fillColor=#bac8d3;strokeColor=#23445d;" parent="1" vertex="1">
          <mxGeometry x="460" y="3020" width="150" height="30" as="geometry" />
        </mxCell>
        <mxCell id="J4NICDW2dzj8mF2yairB-488" value="170" style="rounded=0;whiteSpace=wrap;html=1;fillColor=#f5f5f5;fontColor=#333333;strokeColor=#666666;" parent="1" vertex="1">
          <mxGeometry x="610" y="2960" width="40" height="30" as="geometry" />
        </mxCell>
        <mxCell id="J4NICDW2dzj8mF2yairB-489" value="172" style="rounded=0;whiteSpace=wrap;html=1;fillColor=#f5f5f5;fontColor=#333333;strokeColor=#666666;" parent="1" vertex="1">
          <mxGeometry x="610" y="2990" width="40" height="30" as="geometry" />
        </mxCell>
        <mxCell id="J4NICDW2dzj8mF2yairB-490" value="SE43" style="rounded=0;whiteSpace=wrap;html=1;fillColor=#fff2cc;strokeColor=#d6b656;" parent="1" vertex="1">
          <mxGeometry x="460" y="3050" width="150" height="30" as="geometry" />
        </mxCell>
        <mxCell id="J4NICDW2dzj8mF2yairB-491" value="SE44" style="rounded=0;whiteSpace=wrap;html=1;fillColor=#fff2cc;strokeColor=#d6b656;" parent="1" vertex="1">
          <mxGeometry x="460" y="3080" width="150" height="30" as="geometry" />
        </mxCell>
        <mxCell id="J4NICDW2dzj8mF2yairB-492" value="174" style="rounded=0;whiteSpace=wrap;html=1;fillColor=#f5f5f5;fontColor=#333333;strokeColor=#666666;" parent="1" vertex="1">
          <mxGeometry x="610" y="3020" width="40" height="30" as="geometry" />
        </mxCell>
        <mxCell id="J4NICDW2dzj8mF2yairB-493" value="GND" style="rounded=0;whiteSpace=wrap;html=1;fillColor=#bac8d3;strokeColor=#23445d;" parent="1" vertex="1">
          <mxGeometry x="460" y="3110" width="150" height="30" as="geometry" />
        </mxCell>
        <mxCell id="J4NICDW2dzj8mF2yairB-494" value="176" style="rounded=0;whiteSpace=wrap;html=1;fillColor=#f5f5f5;fontColor=#333333;strokeColor=#666666;" parent="1" vertex="1">
          <mxGeometry x="610" y="3050" width="40" height="30" as="geometry" />
        </mxCell>
        <mxCell id="J4NICDW2dzj8mF2yairB-495" value="SE45" style="rounded=0;whiteSpace=wrap;html=1;fillColor=#fff2cc;strokeColor=#d6b656;" parent="1" vertex="1">
          <mxGeometry x="460" y="3140" width="150" height="30" as="geometry" />
        </mxCell>
        <mxCell id="J4NICDW2dzj8mF2yairB-496" value="SE46" style="rounded=0;whiteSpace=wrap;html=1;fillColor=#fff2cc;strokeColor=#d6b656;" parent="1" vertex="1">
          <mxGeometry x="460" y="3170" width="150" height="30" as="geometry" />
        </mxCell>
        <mxCell id="J4NICDW2dzj8mF2yairB-497" value="178" style="rounded=0;whiteSpace=wrap;html=1;fillColor=#f5f5f5;fontColor=#333333;strokeColor=#666666;" parent="1" vertex="1">
          <mxGeometry x="610" y="3080" width="40" height="30" as="geometry" />
        </mxCell>
        <mxCell id="J4NICDW2dzj8mF2yairB-498" value="180" style="rounded=0;whiteSpace=wrap;html=1;fillColor=#f5f5f5;fontColor=#333333;strokeColor=#666666;" parent="1" vertex="1">
          <mxGeometry x="610" y="3110" width="40" height="30" as="geometry" />
        </mxCell>
        <mxCell id="J4NICDW2dzj8mF2yairB-499" value="GND" style="rounded=0;whiteSpace=wrap;html=1;fillColor=#bac8d3;strokeColor=#23445d;" parent="1" vertex="1">
          <mxGeometry x="460" y="3200" width="150" height="30" as="geometry" />
        </mxCell>
        <mxCell id="J4NICDW2dzj8mF2yairB-500" value="182" style="rounded=0;whiteSpace=wrap;html=1;fillColor=#f5f5f5;fontColor=#333333;strokeColor=#666666;" parent="1" vertex="1">
          <mxGeometry x="610" y="3140" width="40" height="30" as="geometry" />
        </mxCell>
        <mxCell id="J4NICDW2dzj8mF2yairB-501" value="184" style="rounded=0;whiteSpace=wrap;html=1;fillColor=#f5f5f5;fontColor=#333333;strokeColor=#666666;" parent="1" vertex="1">
          <mxGeometry x="610" y="3170" width="40" height="30" as="geometry" />
        </mxCell>
        <mxCell id="J4NICDW2dzj8mF2yairB-502" value="SE47" style="rounded=0;whiteSpace=wrap;html=1;fillColor=#fff2cc;strokeColor=#d6b656;" parent="1" vertex="1">
          <mxGeometry x="460" y="3230" width="150" height="30" as="geometry" />
        </mxCell>
        <mxCell id="J4NICDW2dzj8mF2yairB-503" value="SE48" style="rounded=0;whiteSpace=wrap;html=1;fillColor=#fff2cc;strokeColor=#d6b656;" parent="1" vertex="1">
          <mxGeometry x="460" y="3260" width="150" height="30" as="geometry" />
        </mxCell>
        <mxCell id="J4NICDW2dzj8mF2yairB-504" value="186" style="rounded=0;whiteSpace=wrap;html=1;fillColor=#f5f5f5;fontColor=#333333;strokeColor=#666666;" parent="1" vertex="1">
          <mxGeometry x="610" y="3200" width="40" height="30" as="geometry" />
        </mxCell>
        <mxCell id="J4NICDW2dzj8mF2yairB-505" value="GND" style="rounded=0;whiteSpace=wrap;html=1;fillColor=#bac8d3;strokeColor=#23445d;" parent="1" vertex="1">
          <mxGeometry x="460" y="3290" width="150" height="30" as="geometry" />
        </mxCell>
        <mxCell id="J4NICDW2dzj8mF2yairB-506" value="188" style="rounded=0;whiteSpace=wrap;html=1;fillColor=#f5f5f5;fontColor=#333333;strokeColor=#666666;" parent="1" vertex="1">
          <mxGeometry x="610" y="3230" width="40" height="30" as="geometry" />
        </mxCell>
        <mxCell id="J4NICDW2dzj8mF2yairB-507" value="SE49" style="rounded=0;whiteSpace=wrap;html=1;fillColor=#fff2cc;strokeColor=#d6b656;" parent="1" vertex="1">
          <mxGeometry x="460" y="3320" width="150" height="30" as="geometry" />
        </mxCell>
        <mxCell id="J4NICDW2dzj8mF2yairB-508" value="SE50" style="rounded=0;whiteSpace=wrap;html=1;fillColor=#fff2cc;strokeColor=#d6b656;" parent="1" vertex="1">
          <mxGeometry x="460" y="3350" width="150" height="30" as="geometry" />
        </mxCell>
        <mxCell id="J4NICDW2dzj8mF2yairB-509" value="190" style="rounded=0;whiteSpace=wrap;html=1;fillColor=#f5f5f5;fontColor=#333333;strokeColor=#666666;" parent="1" vertex="1">
          <mxGeometry x="610" y="3260" width="40" height="30" as="geometry" />
        </mxCell>
        <mxCell id="J4NICDW2dzj8mF2yairB-510" value="192" style="rounded=0;whiteSpace=wrap;html=1;fillColor=#f5f5f5;fontColor=#333333;strokeColor=#666666;" parent="1" vertex="1">
          <mxGeometry x="610" y="3290" width="40" height="30" as="geometry" />
        </mxCell>
        <mxCell id="J4NICDW2dzj8mF2yairB-511" value="GND" style="rounded=0;whiteSpace=wrap;html=1;fillColor=#bac8d3;strokeColor=#23445d;" parent="1" vertex="1">
          <mxGeometry x="460" y="3380" width="150" height="30" as="geometry" />
        </mxCell>
        <mxCell id="J4NICDW2dzj8mF2yairB-512" value="194" style="rounded=0;whiteSpace=wrap;html=1;fillColor=#f5f5f5;fontColor=#333333;strokeColor=#666666;" parent="1" vertex="1">
          <mxGeometry x="610" y="3320" width="40" height="30" as="geometry" />
        </mxCell>
        <mxCell id="J4NICDW2dzj8mF2yairB-513" value="196" style="rounded=0;whiteSpace=wrap;html=1;fillColor=#f5f5f5;fontColor=#333333;strokeColor=#666666;" parent="1" vertex="1">
          <mxGeometry x="610" y="3350" width="40" height="30" as="geometry" />
        </mxCell>
        <mxCell id="J4NICDW2dzj8mF2yairB-514" value="SE51" style="rounded=0;whiteSpace=wrap;html=1;fillColor=#fff2cc;strokeColor=#d6b656;" parent="1" vertex="1">
          <mxGeometry x="460" y="3410" width="150" height="30" as="geometry" />
        </mxCell>
        <mxCell id="J4NICDW2dzj8mF2yairB-515" value="GND" style="rounded=0;whiteSpace=wrap;html=1;fillColor=#bac8d3;strokeColor=#23445d;" parent="1" vertex="1">
          <mxGeometry x="460" y="3470" width="150" height="30" as="geometry" />
        </mxCell>
        <mxCell id="J4NICDW2dzj8mF2yairB-516" value="198" style="rounded=0;whiteSpace=wrap;html=1;fillColor=#f5f5f5;fontColor=#333333;strokeColor=#666666;" parent="1" vertex="1">
          <mxGeometry x="610" y="3380" width="40" height="30" as="geometry" />
        </mxCell>
        <mxCell id="J4NICDW2dzj8mF2yairB-517" value="SE53" style="rounded=0;whiteSpace=wrap;html=1;fillColor=#fff2cc;strokeColor=#d6b656;" parent="1" vertex="1">
          <mxGeometry x="460" y="3500" width="150" height="30" as="geometry" />
        </mxCell>
        <mxCell id="J4NICDW2dzj8mF2yairB-518" value="SE54" style="rounded=0;whiteSpace=wrap;html=1;fillColor=#fff2cc;strokeColor=#d6b656;" parent="1" vertex="1">
          <mxGeometry x="460" y="3530" width="150" height="30" as="geometry" />
        </mxCell>
        <mxCell id="J4NICDW2dzj8mF2yairB-519" value="200" style="rounded=0;whiteSpace=wrap;html=1;fillColor=#f5f5f5;fontColor=#333333;strokeColor=#666666;" parent="1" vertex="1">
          <mxGeometry x="610" y="3410" width="40" height="30" as="geometry" />
        </mxCell>
        <mxCell id="J4NICDW2dzj8mF2yairB-520" value="202" style="rounded=0;whiteSpace=wrap;html=1;fillColor=#f5f5f5;fontColor=#333333;strokeColor=#666666;" parent="1" vertex="1">
          <mxGeometry x="610" y="3440" width="40" height="30" as="geometry" />
        </mxCell>
        <mxCell id="J4NICDW2dzj8mF2yairB-521" value="GND" style="rounded=0;whiteSpace=wrap;html=1;fillColor=#bac8d3;strokeColor=#23445d;" parent="1" vertex="1">
          <mxGeometry x="460" y="3560" width="150" height="30" as="geometry" />
        </mxCell>
        <mxCell id="J4NICDW2dzj8mF2yairB-522" value="204" style="rounded=0;whiteSpace=wrap;html=1;fillColor=#f5f5f5;fontColor=#333333;strokeColor=#666666;" parent="1" vertex="1">
          <mxGeometry x="610" y="3470" width="40" height="30" as="geometry" />
        </mxCell>
        <mxCell id="J4NICDW2dzj8mF2yairB-523" value="SE55" style="rounded=0;whiteSpace=wrap;html=1;fillColor=#fff2cc;strokeColor=#d6b656;" parent="1" vertex="1">
          <mxGeometry x="460" y="3590" width="150" height="30" as="geometry" />
        </mxCell>
        <mxCell id="J4NICDW2dzj8mF2yairB-524" value="SE56" style="rounded=0;whiteSpace=wrap;html=1;fillColor=#fff2cc;strokeColor=#d6b656;" parent="1" vertex="1">
          <mxGeometry x="460" y="3620" width="150" height="30" as="geometry" />
        </mxCell>
        <mxCell id="J4NICDW2dzj8mF2yairB-525" value="206" style="rounded=0;whiteSpace=wrap;html=1;fillColor=#f5f5f5;fontColor=#333333;strokeColor=#666666;" parent="1" vertex="1">
          <mxGeometry x="610" y="3500" width="40" height="30" as="geometry" />
        </mxCell>
        <mxCell id="J4NICDW2dzj8mF2yairB-526" value="208" style="rounded=0;whiteSpace=wrap;html=1;fillColor=#f5f5f5;fontColor=#333333;strokeColor=#666666;" parent="1" vertex="1">
          <mxGeometry x="610" y="3530" width="40" height="30" as="geometry" />
        </mxCell>
        <mxCell id="J4NICDW2dzj8mF2yairB-527" value="GND" style="rounded=0;whiteSpace=wrap;html=1;fillColor=#bac8d3;strokeColor=#23445d;" parent="1" vertex="1">
          <mxGeometry x="460" y="3650" width="150" height="30" as="geometry" />
        </mxCell>
        <mxCell id="J4NICDW2dzj8mF2yairB-528" value="210" style="rounded=0;whiteSpace=wrap;html=1;fillColor=#f5f5f5;fontColor=#333333;strokeColor=#666666;" parent="1" vertex="1">
          <mxGeometry x="610" y="3560" width="40" height="30" as="geometry" />
        </mxCell>
        <mxCell id="J4NICDW2dzj8mF2yairB-529" value="212" style="rounded=0;whiteSpace=wrap;html=1;fillColor=#f5f5f5;fontColor=#333333;strokeColor=#666666;" parent="1" vertex="1">
          <mxGeometry x="610" y="3590" width="40" height="30" as="geometry" />
        </mxCell>
        <mxCell id="J4NICDW2dzj8mF2yairB-530" value="SE57" style="rounded=0;whiteSpace=wrap;html=1;fillColor=#fff2cc;strokeColor=#d6b656;" parent="1" vertex="1">
          <mxGeometry x="460" y="3680" width="150" height="30" as="geometry" />
        </mxCell>
        <mxCell id="J4NICDW2dzj8mF2yairB-531" value="SE58" style="rounded=0;whiteSpace=wrap;html=1;fillColor=#fff2cc;strokeColor=#d6b656;" parent="1" vertex="1">
          <mxGeometry x="460" y="3710" width="150" height="30" as="geometry" />
        </mxCell>
        <mxCell id="J4NICDW2dzj8mF2yairB-532" value="214" style="rounded=0;whiteSpace=wrap;html=1;fillColor=#f5f5f5;fontColor=#333333;strokeColor=#666666;" parent="1" vertex="1">
          <mxGeometry x="610" y="3620" width="40" height="30" as="geometry" />
        </mxCell>
        <mxCell id="J4NICDW2dzj8mF2yairB-533" value="GND" style="rounded=0;whiteSpace=wrap;html=1;fillColor=#bac8d3;strokeColor=#23445d;" parent="1" vertex="1">
          <mxGeometry x="460" y="3740" width="150" height="30" as="geometry" />
        </mxCell>
        <mxCell id="J4NICDW2dzj8mF2yairB-534" value="216" style="rounded=0;whiteSpace=wrap;html=1;fillColor=#f5f5f5;fontColor=#333333;strokeColor=#666666;" parent="1" vertex="1">
          <mxGeometry x="610" y="3650" width="40" height="30" as="geometry" />
        </mxCell>
        <mxCell id="J4NICDW2dzj8mF2yairB-535" value="SE59" style="rounded=0;whiteSpace=wrap;html=1;fillColor=#fff2cc;strokeColor=#d6b656;" parent="1" vertex="1">
          <mxGeometry x="460" y="3770" width="150" height="30" as="geometry" />
        </mxCell>
        <mxCell id="J4NICDW2dzj8mF2yairB-536" value="SE60" style="rounded=0;whiteSpace=wrap;html=1;fillColor=#fff2cc;strokeColor=#d6b656;" parent="1" vertex="1">
          <mxGeometry x="460" y="3800" width="150" height="30" as="geometry" />
        </mxCell>
        <mxCell id="J4NICDW2dzj8mF2yairB-537" value="218" style="rounded=0;whiteSpace=wrap;html=1;fillColor=#f5f5f5;fontColor=#333333;strokeColor=#666666;" parent="1" vertex="1">
          <mxGeometry x="610" y="3680" width="40" height="30" as="geometry" />
        </mxCell>
        <mxCell id="J4NICDW2dzj8mF2yairB-538" value="220" style="rounded=0;whiteSpace=wrap;html=1;fillColor=#f5f5f5;fontColor=#333333;strokeColor=#666666;" parent="1" vertex="1">
          <mxGeometry x="610" y="3710" width="40" height="30" as="geometry" />
        </mxCell>
        <mxCell id="J4NICDW2dzj8mF2yairB-539" value="GND" style="rounded=0;whiteSpace=wrap;html=1;fillColor=#bac8d3;strokeColor=#23445d;" parent="1" vertex="1">
          <mxGeometry x="460" y="3830" width="150" height="30" as="geometry" />
        </mxCell>
        <mxCell id="J4NICDW2dzj8mF2yairB-540" value="222" style="rounded=0;whiteSpace=wrap;html=1;fillColor=#f5f5f5;fontColor=#333333;strokeColor=#666666;" parent="1" vertex="1">
          <mxGeometry x="610" y="3740" width="40" height="30" as="geometry" />
        </mxCell>
        <mxCell id="J4NICDW2dzj8mF2yairB-541" value="224" style="rounded=0;whiteSpace=wrap;html=1;fillColor=#f5f5f5;fontColor=#333333;strokeColor=#666666;" parent="1" vertex="1">
          <mxGeometry x="610" y="3770" width="40" height="30" as="geometry" />
        </mxCell>
        <mxCell id="J4NICDW2dzj8mF2yairB-542" value="SE61" style="rounded=0;whiteSpace=wrap;html=1;fillColor=#fff2cc;strokeColor=#d6b656;" parent="1" vertex="1">
          <mxGeometry x="460" y="3860" width="150" height="30" as="geometry" />
        </mxCell>
        <mxCell id="J4NICDW2dzj8mF2yairB-543" value="SE62" style="rounded=0;whiteSpace=wrap;html=1;fillColor=#fff2cc;strokeColor=#d6b656;" parent="1" vertex="1">
          <mxGeometry x="460" y="3890" width="150" height="30" as="geometry" />
        </mxCell>
        <mxCell id="J4NICDW2dzj8mF2yairB-544" value="226" style="rounded=0;whiteSpace=wrap;html=1;fillColor=#f5f5f5;fontColor=#333333;strokeColor=#666666;" parent="1" vertex="1">
          <mxGeometry x="610" y="3800" width="40" height="30" as="geometry" />
        </mxCell>
        <mxCell id="J4NICDW2dzj8mF2yairB-545" value="GND" style="rounded=0;whiteSpace=wrap;html=1;fillColor=#bac8d3;strokeColor=#23445d;" parent="1" vertex="1">
          <mxGeometry x="460" y="3920" width="150" height="30" as="geometry" />
        </mxCell>
        <mxCell id="J4NICDW2dzj8mF2yairB-546" value="228" style="rounded=0;whiteSpace=wrap;html=1;fillColor=#f5f5f5;fontColor=#333333;strokeColor=#666666;" parent="1" vertex="1">
          <mxGeometry x="610" y="3830" width="40" height="30" as="geometry" />
        </mxCell>
        <mxCell id="J4NICDW2dzj8mF2yairB-547" value="SE63" style="rounded=0;whiteSpace=wrap;html=1;fillColor=#fff2cc;strokeColor=#d6b656;" parent="1" vertex="1">
          <mxGeometry x="460" y="3950" width="150" height="30" as="geometry" />
        </mxCell>
        <mxCell id="J4NICDW2dzj8mF2yairB-548" value="SE64" style="rounded=0;whiteSpace=wrap;html=1;fillColor=#fff2cc;strokeColor=#d6b656;" parent="1" vertex="1">
          <mxGeometry x="460" y="3980" width="150" height="30" as="geometry" />
        </mxCell>
        <mxCell id="J4NICDW2dzj8mF2yairB-549" value="230" style="rounded=0;whiteSpace=wrap;html=1;fillColor=#f5f5f5;fontColor=#333333;strokeColor=#666666;" parent="1" vertex="1">
          <mxGeometry x="610" y="3860" width="40" height="30" as="geometry" />
        </mxCell>
        <mxCell id="J4NICDW2dzj8mF2yairB-550" value="232" style="rounded=0;whiteSpace=wrap;html=1;fillColor=#f5f5f5;fontColor=#333333;strokeColor=#666666;" parent="1" vertex="1">
          <mxGeometry x="610" y="3890" width="40" height="30" as="geometry" />
        </mxCell>
        <mxCell id="J4NICDW2dzj8mF2yairB-551" value="GND" style="rounded=0;whiteSpace=wrap;html=1;fillColor=#bac8d3;strokeColor=#23445d;" parent="1" vertex="1">
          <mxGeometry x="460" y="4010" width="150" height="30" as="geometry" />
        </mxCell>
        <mxCell id="J4NICDW2dzj8mF2yairB-552" value="234" style="rounded=0;whiteSpace=wrap;html=1;fillColor=#f5f5f5;fontColor=#333333;strokeColor=#666666;" parent="1" vertex="1">
          <mxGeometry x="610" y="3920" width="40" height="30" as="geometry" />
        </mxCell>
        <mxCell id="J4NICDW2dzj8mF2yairB-553" value="236" style="rounded=0;whiteSpace=wrap;html=1;fillColor=#f5f5f5;fontColor=#333333;strokeColor=#666666;" parent="1" vertex="1">
          <mxGeometry x="610" y="3950" width="40" height="30" as="geometry" />
        </mxCell>
        <mxCell id="J4NICDW2dzj8mF2yairB-554" value="SE65" style="rounded=0;whiteSpace=wrap;html=1;fillColor=#fff2cc;strokeColor=#d6b656;" parent="1" vertex="1">
          <mxGeometry x="460" y="4040" width="150" height="30" as="geometry" />
        </mxCell>
        <mxCell id="J4NICDW2dzj8mF2yairB-555" value="SE66" style="rounded=0;whiteSpace=wrap;html=1;fillColor=#fff2cc;strokeColor=#d6b656;" parent="1" vertex="1">
          <mxGeometry x="460" y="4070" width="150" height="30" as="geometry" />
        </mxCell>
        <mxCell id="J4NICDW2dzj8mF2yairB-556" value="238" style="rounded=0;whiteSpace=wrap;html=1;fillColor=#f5f5f5;fontColor=#333333;strokeColor=#666666;" parent="1" vertex="1">
          <mxGeometry x="610" y="3980" width="40" height="30" as="geometry" />
        </mxCell>
        <mxCell id="J4NICDW2dzj8mF2yairB-557" value="GND" style="rounded=0;whiteSpace=wrap;html=1;fillColor=#bac8d3;strokeColor=#23445d;" parent="1" vertex="1">
          <mxGeometry x="460" y="4100" width="150" height="30" as="geometry" />
        </mxCell>
        <mxCell id="J4NICDW2dzj8mF2yairB-558" value="240" style="rounded=0;whiteSpace=wrap;html=1;fillColor=#f5f5f5;fontColor=#333333;strokeColor=#666666;" parent="1" vertex="1">
          <mxGeometry x="610" y="4010" width="40" height="30" as="geometry" />
        </mxCell>
        <mxCell id="J4NICDW2dzj8mF2yairB-561" value="242" style="rounded=0;whiteSpace=wrap;html=1;fillColor=#f5f5f5;fontColor=#333333;strokeColor=#666666;" parent="1" vertex="1">
          <mxGeometry x="610" y="4040" width="40" height="30" as="geometry" />
        </mxCell>
        <mxCell id="J4NICDW2dzj8mF2yairB-562" value="244" style="rounded=0;whiteSpace=wrap;html=1;fillColor=#f5f5f5;fontColor=#333333;strokeColor=#666666;" parent="1" vertex="1">
          <mxGeometry x="610" y="4070" width="40" height="30" as="geometry" />
        </mxCell>
        <mxCell id="J4NICDW2dzj8mF2yairB-564" value="246" style="rounded=0;whiteSpace=wrap;html=1;fillColor=#f5f5f5;fontColor=#333333;strokeColor=#666666;" parent="1" vertex="1">
          <mxGeometry x="610" y="4100" width="40" height="30" as="geometry" />
        </mxCell>
        <mxCell id="J4NICDW2dzj8mF2yairB-565" value="248" style="rounded=0;whiteSpace=wrap;html=1;fillColor=#f5f5f5;fontColor=#333333;strokeColor=#666666;" parent="1" vertex="1">
          <mxGeometry x="610" y="4130" width="40" height="30" as="geometry" />
        </mxCell>
        <mxCell id="J4NICDW2dzj8mF2yairB-566" value="250" style="rounded=0;whiteSpace=wrap;html=1;fillColor=#f5f5f5;fontColor=#333333;strokeColor=#666666;" parent="1" vertex="1">
          <mxGeometry x="610" y="4160" width="40" height="30" as="geometry" />
        </mxCell>
        <mxCell id="J4NICDW2dzj8mF2yairB-567" value="252" style="rounded=0;whiteSpace=wrap;html=1;fillColor=#f5f5f5;fontColor=#333333;strokeColor=#666666;" parent="1" vertex="1">
          <mxGeometry x="610" y="4190" width="40" height="30" as="geometry" />
        </mxCell>
        <mxCell id="J4NICDW2dzj8mF2yairB-568" value="254" style="rounded=0;whiteSpace=wrap;html=1;fillColor=#f5f5f5;fontColor=#333333;strokeColor=#666666;" parent="1" vertex="1">
          <mxGeometry x="610" y="4220" width="40" height="30" as="geometry" />
        </mxCell>
        <mxCell id="J4NICDW2dzj8mF2yairB-569" value="256" style="rounded=0;whiteSpace=wrap;html=1;fillColor=#f5f5f5;fontColor=#333333;strokeColor=#666666;" parent="1" vertex="1">
          <mxGeometry x="610" y="4250" width="40" height="30" as="geometry" />
        </mxCell>
        <mxCell id="J4NICDW2dzj8mF2yairB-570" value="258" style="rounded=0;whiteSpace=wrap;html=1;fillColor=#f5f5f5;fontColor=#333333;strokeColor=#666666;" parent="1" vertex="1">
          <mxGeometry x="610" y="4280" width="40" height="30" as="geometry" />
        </mxCell>
        <mxCell id="J4NICDW2dzj8mF2yairB-571" value="260" style="rounded=0;whiteSpace=wrap;html=1;fillColor=#f5f5f5;fontColor=#333333;strokeColor=#666666;" parent="1" vertex="1">
          <mxGeometry x="610" y="4310" width="40" height="30" as="geometry" />
        </mxCell>
        <mxCell id="J4NICDW2dzj8mF2yairB-572" value="VIN9_15" style="rounded=0;whiteSpace=wrap;html=1;fillColor=#f8cecc;strokeColor=#b85450;" parent="1" vertex="1">
          <mxGeometry x="460" y="4190" width="150" height="30" as="geometry" />
        </mxCell>
        <mxCell id="J4NICDW2dzj8mF2yairB-573" value="VIN9_15" style="rounded=0;whiteSpace=wrap;html=1;fillColor=#f8cecc;strokeColor=#b85450;" parent="1" vertex="1">
          <mxGeometry x="460" y="4220" width="150" height="30" as="geometry" />
        </mxCell>
        <mxCell id="J4NICDW2dzj8mF2yairB-574" value="VIN9_15" style="rounded=0;whiteSpace=wrap;html=1;fillColor=#f8cecc;strokeColor=#b85450;" parent="1" vertex="1">
          <mxGeometry x="460" y="4250" width="150" height="30" as="geometry" />
        </mxCell>
        <mxCell id="J4NICDW2dzj8mF2yairB-575" value="VIN9_15" style="rounded=0;whiteSpace=wrap;html=1;fillColor=#f8cecc;strokeColor=#b85450;" parent="1" vertex="1">
          <mxGeometry x="460" y="4280" width="150" height="30" as="geometry" />
        </mxCell>
        <mxCell id="J4NICDW2dzj8mF2yairB-576" value="VIN9_15" style="rounded=0;whiteSpace=wrap;html=1;fillColor=#f8cecc;strokeColor=#b85450;" parent="1" vertex="1">
          <mxGeometry x="460" y="4310" width="150" height="30" as="geometry" />
        </mxCell>
        <mxCell id="J4NICDW2dzj8mF2yairB-577" value="66" style="rounded=0;whiteSpace=wrap;html=1;fillColor=#f5f5f5;fontColor=#333333;strokeColor=#666666;" parent="1" vertex="1">
          <mxGeometry x="610" y="1340" width="40" height="30" as="geometry" />
        </mxCell>
        <mxCell id="J4NICDW2dzj8mF2yairB-578" value="GND" style="rounded=0;whiteSpace=wrap;html=1;fillColor=#bac8d3;strokeColor=#23445d;" parent="1" vertex="1">
          <mxGeometry x="460" y="4160" width="150" height="30" as="geometry" />
        </mxCell>
        <mxCell id="J4NICDW2dzj8mF2yairB-579" value="SE28" style="rounded=0;whiteSpace=wrap;html=1;fillColor=#fff2cc;strokeColor=#d6b656;" parent="1" vertex="1">
          <mxGeometry x="260" y="3830" width="150" height="30" as="geometry" />
        </mxCell>
        <mxCell id="J4NICDW2dzj8mF2yairB-580" value="SE52" style="rounded=0;whiteSpace=wrap;html=1;fillColor=#fff2cc;strokeColor=#d6b656;" parent="1" vertex="1">
          <mxGeometry x="460" y="3440" width="150" height="30" as="geometry" />
        </mxCell>
        <mxCell id="J4NICDW2dzj8mF2yairB-581" value="GND" style="rounded=0;whiteSpace=wrap;html=1;fillColor=#bac8d3;strokeColor=#23445d;" parent="1" vertex="1">
          <mxGeometry x="260" y="1310" width="150" height="30" as="geometry" />
        </mxCell>
        <mxCell id="J4NICDW2dzj8mF2yairB-583" value="GND" style="rounded=0;whiteSpace=wrap;html=1;fillColor=#bac8d3;strokeColor=#23445d;" parent="1" vertex="1">
          <mxGeometry x="260" y="1430" width="150" height="30" as="geometry" />
        </mxCell>
        <mxCell id="J4NICDW2dzj8mF2yairB-586" value="GND" style="rounded=0;whiteSpace=wrap;html=1;fillColor=#bac8d3;strokeColor=#23445d;" parent="1" vertex="1">
          <mxGeometry x="260" y="1550" width="150" height="30" as="geometry" />
        </mxCell>
        <mxCell id="J4NICDW2dzj8mF2yairB-587" value="GND" style="rounded=0;whiteSpace=wrap;html=1;fillColor=#bac8d3;strokeColor=#23445d;" parent="1" vertex="1">
          <mxGeometry x="260" y="1670" width="150" height="30" as="geometry" />
        </mxCell>
        <mxCell id="J4NICDW2dzj8mF2yairB-588" value="GND" style="rounded=0;whiteSpace=wrap;html=1;fillColor=#bac8d3;strokeColor=#23445d;" parent="1" vertex="1">
          <mxGeometry x="260" y="1790" width="150" height="30" as="geometry" />
        </mxCell>
        <mxCell id="J4NICDW2dzj8mF2yairB-597" value="GND" style="rounded=0;whiteSpace=wrap;html=1;fillColor=#bac8d3;strokeColor=#23445d;" parent="1" vertex="1">
          <mxGeometry x="260" y="2030" width="150" height="30" as="geometry" />
        </mxCell>
        <mxCell id="J4NICDW2dzj8mF2yairB-598" value="GND" style="rounded=0;whiteSpace=wrap;html=1;fillColor=#bac8d3;strokeColor=#23445d;" parent="1" vertex="1">
          <mxGeometry x="260" y="2150" width="150" height="30" as="geometry" />
        </mxCell>
        <mxCell id="J4NICDW2dzj8mF2yairB-599" value="GND" style="rounded=0;whiteSpace=wrap;html=1;fillColor=#bac8d3;strokeColor=#23445d;" parent="1" vertex="1">
          <mxGeometry x="260" y="2390" width="150" height="30" as="geometry" />
        </mxCell>
        <mxCell id="J4NICDW2dzj8mF2yairB-600" value="GND" style="rounded=0;whiteSpace=wrap;html=1;fillColor=#bac8d3;strokeColor=#23445d;" parent="1" vertex="1">
          <mxGeometry x="260" y="2480" width="150" height="30" as="geometry" />
        </mxCell>
        <mxCell id="J4NICDW2dzj8mF2yairB-601" value="GND" style="rounded=0;whiteSpace=wrap;html=1;fillColor=#bac8d3;strokeColor=#23445d;" parent="1" vertex="1">
          <mxGeometry x="260" y="2780" width="150" height="30" as="geometry" />
        </mxCell>
        <mxCell id="J4NICDW2dzj8mF2yairB-602" value="SE3" style="rounded=0;whiteSpace=wrap;html=1;fillColor=#fff2cc;strokeColor=#d6b656;" parent="1" vertex="1">
          <mxGeometry x="260" y="2720" width="150" height="30" as="geometry" />
        </mxCell>
        <mxCell id="J4NICDW2dzj8mF2yairB-603" value="SE4" style="rounded=0;whiteSpace=wrap;html=1;fillColor=#fff2cc;strokeColor=#d6b656;" parent="1" vertex="1">
          <mxGeometry x="260" y="2750" width="150" height="30" as="geometry" />
        </mxCell>
        <mxCell id="J4NICDW2dzj8mF2yairB-604" value="RESET_IN" style="rounded=0;whiteSpace=wrap;html=1;fillColor=#d5e8d4;strokeColor=#82b366;" parent="1" vertex="1">
          <mxGeometry x="460" y="380" width="150" height="30" as="geometry" />
        </mxCell>
        <mxCell id="J4NICDW2dzj8mF2yairB-605" value="GND" style="rounded=0;whiteSpace=wrap;html=1;fillColor=#bac8d3;strokeColor=#23445d;" parent="1" vertex="1">
          <mxGeometry x="460" y="500" width="150" height="30" as="geometry" />
        </mxCell>
        <mxCell id="J4NICDW2dzj8mF2yairB-609" value="GND" style="rounded=0;whiteSpace=wrap;html=1;fillColor=#bac8d3;strokeColor=#23445d;" parent="1" vertex="1">
          <mxGeometry x="260" y="1880" width="150" height="30" as="geometry" />
        </mxCell>
        <mxCell id="J4NICDW2dzj8mF2yairB-610" value="GND" style="rounded=0;whiteSpace=wrap;html=1;fillColor=#bac8d3;strokeColor=#23445d;" parent="1" vertex="1">
          <mxGeometry x="260" y="1910" width="150" height="30" as="geometry" />
        </mxCell>
        <mxCell id="J4NICDW2dzj8mF2yairB-614" value="RTD17P" style="rounded=0;whiteSpace=wrap;html=1;fillColor=#b0e3e6;strokeColor=#0e8088;" parent="1" vertex="1">
          <mxGeometry x="460" y="1250" width="150" height="30" as="geometry" />
        </mxCell>
        <mxCell id="J4NICDW2dzj8mF2yairB-615" value="RTD17N" style="rounded=0;whiteSpace=wrap;html=1;fillColor=#b0e3e6;strokeColor=#0e8088;" parent="1" vertex="1">
          <mxGeometry x="460" y="1280" width="150" height="30" as="geometry" />
        </mxCell>
        <mxCell id="J4NICDW2dzj8mF2yairB-616" value="GND" style="rounded=0;whiteSpace=wrap;html=1;fillColor=#bac8d3;strokeColor=#23445d;" parent="1" vertex="1">
          <mxGeometry x="460" y="1310" width="150" height="30" as="geometry" />
        </mxCell>
        <mxCell id="J4NICDW2dzj8mF2yairB-617" value="RTD18P" style="rounded=0;whiteSpace=wrap;html=1;fillColor=#b0e3e6;strokeColor=#0e8088;" parent="1" vertex="1">
          <mxGeometry x="460" y="1340" width="150" height="30" as="geometry" />
        </mxCell>
        <mxCell id="J4NICDW2dzj8mF2yairB-618" value="RTD18N" style="rounded=0;whiteSpace=wrap;html=1;fillColor=#b0e3e6;strokeColor=#0e8088;" parent="1" vertex="1">
          <mxGeometry x="460" y="1370" width="150" height="30" as="geometry" />
        </mxCell>
        <mxCell id="J4NICDW2dzj8mF2yairB-619" value="GND" style="rounded=0;whiteSpace=wrap;html=1;fillColor=#bac8d3;strokeColor=#23445d;" parent="1" vertex="1">
          <mxGeometry x="460" y="1400" width="150" height="30" as="geometry" />
        </mxCell>
        <mxCell id="J4NICDW2dzj8mF2yairB-620" value="RTD19P" style="rounded=0;whiteSpace=wrap;html=1;fillColor=#b0e3e6;strokeColor=#0e8088;" parent="1" vertex="1">
          <mxGeometry x="460" y="1430" width="150" height="30" as="geometry" />
        </mxCell>
        <mxCell id="J4NICDW2dzj8mF2yairB-621" value="RTD19N" style="rounded=0;whiteSpace=wrap;html=1;fillColor=#b0e3e6;strokeColor=#0e8088;" parent="1" vertex="1">
          <mxGeometry x="460" y="1460" width="150" height="30" as="geometry" />
        </mxCell>
        <mxCell id="J4NICDW2dzj8mF2yairB-622" value="GND" style="rounded=0;whiteSpace=wrap;html=1;fillColor=#bac8d3;strokeColor=#23445d;" parent="1" vertex="1">
          <mxGeometry x="460" y="1490" width="150" height="30" as="geometry" />
        </mxCell>
        <mxCell id="J4NICDW2dzj8mF2yairB-623" value="RTD20P" style="rounded=0;whiteSpace=wrap;html=1;fillColor=#b0e3e6;strokeColor=#0e8088;" parent="1" vertex="1">
          <mxGeometry x="460" y="1520" width="150" height="30" as="geometry" />
        </mxCell>
        <mxCell id="J4NICDW2dzj8mF2yairB-624" value="RTD20N" style="rounded=0;whiteSpace=wrap;html=1;fillColor=#b0e3e6;strokeColor=#0e8088;" parent="1" vertex="1">
          <mxGeometry x="460" y="1550" width="150" height="30" as="geometry" />
        </mxCell>
        <mxCell id="J4NICDW2dzj8mF2yairB-625" value="GND" style="rounded=0;whiteSpace=wrap;html=1;fillColor=#bac8d3;strokeColor=#23445d;" parent="1" vertex="1">
          <mxGeometry x="460" y="1580" width="150" height="30" as="geometry" />
        </mxCell>
        <mxCell id="J4NICDW2dzj8mF2yairB-626" value="RTD21P" style="rounded=0;whiteSpace=wrap;html=1;fillColor=#b0e3e6;strokeColor=#0e8088;" parent="1" vertex="1">
          <mxGeometry x="460" y="1610" width="150" height="30" as="geometry" />
        </mxCell>
        <mxCell id="J4NICDW2dzj8mF2yairB-627" value="RTD21N" style="rounded=0;whiteSpace=wrap;html=1;fillColor=#b0e3e6;strokeColor=#0e8088;" parent="1" vertex="1">
          <mxGeometry x="460" y="1640" width="150" height="30" as="geometry" />
        </mxCell>
        <mxCell id="J4NICDW2dzj8mF2yairB-628" value="GND" style="rounded=0;whiteSpace=wrap;html=1;fillColor=#bac8d3;strokeColor=#23445d;" parent="1" vertex="1">
          <mxGeometry x="460" y="1670" width="150" height="30" as="geometry" />
        </mxCell>
        <mxCell id="J4NICDW2dzj8mF2yairB-629" value="RTD22P" style="rounded=0;whiteSpace=wrap;html=1;fillColor=#b0e3e6;strokeColor=#0e8088;" parent="1" vertex="1">
          <mxGeometry x="460" y="1700" width="150" height="30" as="geometry" />
        </mxCell>
        <mxCell id="J4NICDW2dzj8mF2yairB-630" value="RTD22N" style="rounded=0;whiteSpace=wrap;html=1;fillColor=#b0e3e6;strokeColor=#0e8088;" parent="1" vertex="1">
          <mxGeometry x="460" y="1730" width="150" height="30" as="geometry" />
        </mxCell>
        <mxCell id="J4NICDW2dzj8mF2yairB-631" value="GND" style="rounded=0;whiteSpace=wrap;html=1;fillColor=#bac8d3;strokeColor=#23445d;" parent="1" vertex="1">
          <mxGeometry x="460" y="1760" width="150" height="30" as="geometry" />
        </mxCell>
        <mxCell id="J4NICDW2dzj8mF2yairB-632" value="RTD23P" style="rounded=0;whiteSpace=wrap;html=1;fillColor=#b0e3e6;strokeColor=#0e8088;" parent="1" vertex="1">
          <mxGeometry x="460" y="1790" width="150" height="30" as="geometry" />
        </mxCell>
        <mxCell id="J4NICDW2dzj8mF2yairB-633" value="RTD23N" style="rounded=0;whiteSpace=wrap;html=1;fillColor=#b0e3e6;strokeColor=#0e8088;" parent="1" vertex="1">
          <mxGeometry x="460" y="1820" width="150" height="30" as="geometry" />
        </mxCell>
        <mxCell id="J4NICDW2dzj8mF2yairB-634" value="GND" style="rounded=0;whiteSpace=wrap;html=1;fillColor=#bac8d3;strokeColor=#23445d;" parent="1" vertex="1">
          <mxGeometry x="460" y="1850" width="150" height="30" as="geometry" />
        </mxCell>
        <mxCell id="J4NICDW2dzj8mF2yairB-635" value="R&lt;span style=&quot;background-color: transparent; color: light-dark(rgb(0, 0, 0), rgb(255, 255, 255));&quot;&gt;D29N&lt;/span&gt;" style="rounded=0;whiteSpace=wrap;html=1;fillColor=#e1d5e7;strokeColor=#9673a6;" parent="1" vertex="1">
          <mxGeometry x="460" y="2360" width="150" height="30" as="geometry" />
        </mxCell>
        <mxCell id="J4NICDW2dzj8mF2yairB-638" value="RTD30P" style="rounded=0;whiteSpace=wrap;html=1;fillColor=#b0e3e6;strokeColor=#0e8088;" parent="1" vertex="1">
          <mxGeometry x="460" y="2420" width="150" height="30" as="geometry" />
        </mxCell>
        <mxCell id="J4NICDW2dzj8mF2yairB-639" value="RTD30N" style="rounded=0;whiteSpace=wrap;html=1;fillColor=#b0e3e6;strokeColor=#0e8088;" parent="1" vertex="1">
          <mxGeometry x="460" y="2450" width="150" height="30" as="geometry" />
        </mxCell>
        <mxCell id="J4NICDW2dzj8mF2yairB-640" value="GND" style="rounded=0;whiteSpace=wrap;html=1;fillColor=#bac8d3;strokeColor=#23445d;" parent="1" vertex="1">
          <mxGeometry x="460" y="2570" width="150" height="30" as="geometry" />
        </mxCell>
        <mxCell id="J4NICDW2dzj8mF2yairB-641" value="RD31P" style="rounded=0;whiteSpace=wrap;html=1;fillColor=#e1d5e7;strokeColor=#9673a6;" parent="1" vertex="1">
          <mxGeometry x="460" y="2600" width="150" height="30" as="geometry" />
        </mxCell>
        <mxCell id="J4NICDW2dzj8mF2yairB-642" value="R&lt;span style=&quot;background-color: transparent; color: light-dark(rgb(0, 0, 0), rgb(255, 255, 255));&quot;&gt;D31N&lt;/span&gt;" style="rounded=0;whiteSpace=wrap;html=1;fillColor=#e1d5e7;strokeColor=#9673a6;" parent="1" vertex="1">
          <mxGeometry x="460" y="2630" width="150" height="30" as="geometry" />
        </mxCell>
        <mxCell id="J4NICDW2dzj8mF2yairB-643" value="GND" style="rounded=0;whiteSpace=wrap;html=1;fillColor=#bac8d3;strokeColor=#23445d;" parent="1" vertex="1">
          <mxGeometry x="460" y="2480" width="150" height="30" as="geometry" />
        </mxCell>
        <mxCell id="J4NICDW2dzj8mF2yairB-644" value="GND" style="rounded=0;whiteSpace=wrap;html=1;fillColor=#bac8d3;strokeColor=#23445d;" parent="1" vertex="1">
          <mxGeometry x="460" y="2390" width="150" height="30" as="geometry" />
        </mxCell>
        <mxCell id="J4NICDW2dzj8mF2yairB-647" value="GND" style="rounded=0;whiteSpace=wrap;html=1;fillColor=#bac8d3;strokeColor=#23445d;" parent="1" vertex="1">
          <mxGeometry x="260" y="2240" width="150" height="30" as="geometry" />
        </mxCell>
        <mxCell id="J4NICDW2dzj8mF2yairB-648" value="GND" style="rounded=0;whiteSpace=wrap;html=1;fillColor=#bac8d3;strokeColor=#23445d;" parent="1" vertex="1">
          <mxGeometry x="260" y="2270" width="150" height="30" as="geometry" />
        </mxCell>
        <mxCell id="J4NICDW2dzj8mF2yairB-651" value="GND" style="rounded=0;whiteSpace=wrap;html=1;fillColor=#bac8d3;strokeColor=#23445d;" parent="1" vertex="1">
          <mxGeometry x="260" y="2600" width="150" height="30" as="geometry" />
        </mxCell>
        <mxCell id="J4NICDW2dzj8mF2yairB-652" value="GND" style="rounded=0;whiteSpace=wrap;html=1;fillColor=#bac8d3;strokeColor=#23445d;" parent="1" vertex="1">
          <mxGeometry x="260" y="4130" width="150" height="30" as="geometry" />
        </mxCell>
        <mxCell id="J4NICDW2dzj8mF2yairB-653" value="GND" style="rounded=0;whiteSpace=wrap;html=1;fillColor=#bac8d3;strokeColor=#23445d;" parent="1" vertex="1">
          <mxGeometry x="460" y="410" width="150" height="30" as="geometry" />
        </mxCell>
        <mxCell id="J4NICDW2dzj8mF2yairB-655" value="RTD8P" style="rounded=0;whiteSpace=wrap;html=1;fillColor=#b0e3e6;strokeColor=#0e8088;" parent="1" vertex="1">
          <mxGeometry x="460" y="440" width="150" height="30" as="geometry" />
        </mxCell>
        <mxCell id="J4NICDW2dzj8mF2yairB-656" value="RTD8N" style="rounded=0;whiteSpace=wrap;html=1;fillColor=#b0e3e6;strokeColor=#0e8088;" parent="1" vertex="1">
          <mxGeometry x="460" y="470" width="150" height="30" as="geometry" />
        </mxCell>
        <mxCell id="J4NICDW2dzj8mF2yairB-658" value="SE67" style="rounded=0;whiteSpace=wrap;html=1;fillColor=#fff2cc;strokeColor=#d6b656;" parent="1" vertex="1">
          <mxGeometry x="460" y="4130" width="150" height="30" as="geometry" />
        </mxCell>
        <mxCell id="d3My2j10sN2HfTvnUo8m-1" value="&lt;i&gt;unused&lt;/i&gt;" style="rounded=0;whiteSpace=wrap;html=1;fillColor=#D4D4D4;strokeColor=#666666;fontColor=#333333;" parent="1" vertex="1">
          <mxGeometry x="260" y="1370" width="150" height="30" as="geometry" />
        </mxCell>
        <mxCell id="d3My2j10sN2HfTvnUo8m-2" value="&lt;i&gt;unused&lt;/i&gt;" style="rounded=0;whiteSpace=wrap;html=1;fillColor=#D4D4D4;strokeColor=#666666;fontColor=#333333;" parent="1" vertex="1">
          <mxGeometry x="260" y="1460" width="150" height="30" as="geometry" />
        </mxCell>
        <mxCell id="d3My2j10sN2HfTvnUo8m-3" value="&lt;i&gt;unused&lt;/i&gt;" style="rounded=0;whiteSpace=wrap;html=1;fillColor=#D4D4D4;strokeColor=#666666;fontColor=#333333;" parent="1" vertex="1">
          <mxGeometry x="260" y="1490" width="150" height="30" as="geometry" />
        </mxCell>
        <mxCell id="d3My2j10sN2HfTvnUo8m-4" value="&lt;i&gt;unused&lt;/i&gt;" style="rounded=0;whiteSpace=wrap;html=1;fillColor=#D4D4D4;strokeColor=#666666;fontColor=#333333;" parent="1" vertex="1">
          <mxGeometry x="260" y="1580" width="150" height="30" as="geometry" />
        </mxCell>
        <mxCell id="d3My2j10sN2HfTvnUo8m-5" value="&lt;i&gt;unused&lt;/i&gt;" style="rounded=0;whiteSpace=wrap;html=1;fillColor=#D4D4D4;strokeColor=#666666;fontColor=#333333;" parent="1" vertex="1">
          <mxGeometry x="260" y="1610" width="150" height="30" as="geometry" />
        </mxCell>
        <mxCell id="d3My2j10sN2HfTvnUo8m-6" value="&lt;i&gt;unused&lt;/i&gt;" style="rounded=0;whiteSpace=wrap;html=1;fillColor=#D4D4D4;strokeColor=#666666;fontColor=#333333;" parent="1" vertex="1">
          <mxGeometry x="260" y="1700" width="150" height="30" as="geometry" />
        </mxCell>
        <mxCell id="d3My2j10sN2HfTvnUo8m-7" value="&lt;i&gt;unused&lt;/i&gt;" style="rounded=0;whiteSpace=wrap;html=1;fillColor=#D4D4D4;strokeColor=#666666;fontColor=#333333;" parent="1" vertex="1">
          <mxGeometry x="260" y="1730" width="150" height="30" as="geometry" />
        </mxCell>
        <mxCell id="d3My2j10sN2HfTvnUo8m-8" value="&lt;i&gt;unused&lt;/i&gt;" style="rounded=0;whiteSpace=wrap;html=1;fillColor=#D4D4D4;strokeColor=#666666;fontColor=#333333;" parent="1" vertex="1">
          <mxGeometry x="260" y="1820" width="150" height="30" as="geometry" />
        </mxCell>
        <mxCell id="d3My2j10sN2HfTvnUo8m-9" value="&lt;i&gt;unused&lt;/i&gt;" style="rounded=0;whiteSpace=wrap;html=1;fillColor=#D4D4D4;strokeColor=#666666;fontColor=#333333;" parent="1" vertex="1">
          <mxGeometry x="260" y="1850" width="150" height="30" as="geometry" />
        </mxCell>
        <mxCell id="d3My2j10sN2HfTvnUo8m-10" value="&lt;i&gt;unused&lt;/i&gt;" style="rounded=0;whiteSpace=wrap;html=1;fillColor=#D4D4D4;strokeColor=#666666;fontColor=#333333;" parent="1" vertex="1">
          <mxGeometry x="260" y="1940" width="150" height="30" as="geometry" />
        </mxCell>
        <mxCell id="d3My2j10sN2HfTvnUo8m-11" value="&lt;i&gt;unused&lt;/i&gt;" style="rounded=0;whiteSpace=wrap;html=1;fillColor=#D4D4D4;strokeColor=#666666;fontColor=#333333;" parent="1" vertex="1">
          <mxGeometry x="260" y="1970" width="150" height="30" as="geometry" />
        </mxCell>
        <mxCell id="d3My2j10sN2HfTvnUo8m-12" value="&lt;i&gt;unused&lt;/i&gt;" style="rounded=0;whiteSpace=wrap;html=1;fillColor=#D4D4D4;strokeColor=#666666;fontColor=#333333;" parent="1" vertex="1">
          <mxGeometry x="260" y="2060" width="150" height="30" as="geometry" />
        </mxCell>
        <mxCell id="d3My2j10sN2HfTvnUo8m-13" value="&lt;i&gt;unused&lt;/i&gt;" style="rounded=0;whiteSpace=wrap;html=1;fillColor=#D4D4D4;strokeColor=#666666;fontColor=#333333;" parent="1" vertex="1">
          <mxGeometry x="260" y="2090" width="150" height="30" as="geometry" />
        </mxCell>
        <mxCell id="d3My2j10sN2HfTvnUo8m-14" value="&lt;i&gt;unused&lt;/i&gt;" style="rounded=0;whiteSpace=wrap;html=1;fillColor=#D4D4D4;strokeColor=#666666;fontColor=#333333;" parent="1" vertex="1">
          <mxGeometry x="260" y="2180" width="150" height="30" as="geometry" />
        </mxCell>
        <mxCell id="d3My2j10sN2HfTvnUo8m-15" value="&lt;i&gt;unused&lt;/i&gt;" style="rounded=0;whiteSpace=wrap;html=1;fillColor=#D4D4D4;strokeColor=#666666;fontColor=#333333;" parent="1" vertex="1">
          <mxGeometry x="260" y="2210" width="150" height="30" as="geometry" />
        </mxCell>
        <mxCell id="d3My2j10sN2HfTvnUo8m-16" value="&lt;i&gt;unused&lt;/i&gt;" style="rounded=0;whiteSpace=wrap;html=1;fillColor=#D4D4D4;strokeColor=#666666;fontColor=#333333;" parent="1" vertex="1">
          <mxGeometry x="260" y="2300" width="150" height="30" as="geometry" />
        </mxCell>
        <mxCell id="d3My2j10sN2HfTvnUo8m-17" value="&lt;i&gt;unused&lt;/i&gt;" style="rounded=0;whiteSpace=wrap;html=1;fillColor=#D4D4D4;strokeColor=#666666;fontColor=#333333;" parent="1" vertex="1">
          <mxGeometry x="260" y="2330" width="150" height="30" as="geometry" />
        </mxCell>
        <mxCell id="d3My2j10sN2HfTvnUo8m-18" value="&lt;i&gt;unused&lt;/i&gt;" style="rounded=0;whiteSpace=wrap;html=1;fillColor=#D4D4D4;strokeColor=#666666;fontColor=#333333;" parent="1" vertex="1">
          <mxGeometry x="260" y="2420" width="150" height="30" as="geometry" />
        </mxCell>
        <mxCell id="d3My2j10sN2HfTvnUo8m-19" value="&lt;i&gt;unused&lt;/i&gt;" style="rounded=0;whiteSpace=wrap;html=1;fillColor=#D4D4D4;strokeColor=#666666;fontColor=#333333;" parent="1" vertex="1">
          <mxGeometry x="260" y="2450" width="150" height="30" as="geometry" />
        </mxCell>
      </root>
    </mxGraphModel>
  </diagram>
</mxfile>
